Khula-wt439.67.ufo
<glyph name="percent.deva" format="1">
  <advance width="1511"/>
  <unicode hex="0025"/>
  <outline>
    <contour>
      <point x="227" y="923" type="curve" smooth="yes"/>
      <point x="227" y="736"/>
      <point x="258" y="643"/>
      <point x="345" y="643" type="curve" smooth="yes"/>
      <point x="429" y="643"/>
      <point x="470" y="736"/>
      <point x="470" y="923" type="curve" smooth="yes"/>
      <point x="470" y="1110"/>
      <point x="431" y="1204"/>
      <point x="345" y="1204" type="curve" smooth="yes"/>
      <point x="258" y="1204"/>
      <point x="227" y="1112"/>
    </contour>
    <contour>
      <point x="624" y="923" type="curve" smooth="yes"/>
      <point x="624" y="648"/>
      <point x="529" y="508"/>
      <point x="345" y="508" type="curve" smooth="yes"/>
      <point x="169" y="508"/>
      <point x="71" y="653"/>
      <point x="71" y="923" type="curve" smooth="yes"/>
      <point x="71" y="1200"/>
      <point x="164" y="1335"/>
      <point x="345" y="1335" type="curve" smooth="yes"/>
      <point x="527" y="1335"/>
      <point x="624" y="1189"/>
    </contour>
    <contour>
      <point x="1041" y="398" type="curve" smooth="yes"/>
      <point x="1041" y="207"/>
      <point x="1072" y="116"/>
      <point x="1161" y="116" type="curve" smooth="yes"/>
      <point x="1249" y="116"/>
      <point x="1286" y="202"/>
      <point x="1286" y="398" type="curve" smooth="yes"/>
      <point x="1286" y="589"/>
      <point x="1249" y="673"/>
      <point x="1161" y="673" type="curve" smooth="yes"/>
      <point x="1072" y="673"/>
      <point x="1041" y="586"/>
    </contour>
    <contour>
      <point x="1440" y="398" type="curve" smooth="yes"/>
      <point x="1440" y="125"/>
      <point x="1343" y="-15"/>
      <point x="1159" y="-15" type="curve" smooth="yes"/>
      <point x="982" y="-15"/>
      <point x="886" y="125"/>
      <point x="886" y="398" type="curve" smooth="yes"/>
      <point x="886" y="671"/>
      <point x="977" y="809"/>
      <point x="1159" y="809" type="curve" smooth="yes"/>
      <point x="1336" y="809"/>
      <point x="1440" y="671"/>
    </contour>
    <contour>
      <point x="1210" y="1316" type="line"/>
      <point x="480" y="0" type="line"/>
      <point x="305" y="0" type="line"/>
      <point x="1035" y="1316" type="line"/>
    </contour>
  </outline>
</glyph>
<glyph name="plus.deva" format="1">
  <advance width="1051"/>
  <unicode hex="002B"/>
  <outline>
    <contour>
      <point x="537" y="663" type="line"/>
      <point x="717" y="663" type="line"/>
      <point x="717" y="637" type="line"/>
      <point x="537" y="637" type="line"/>
      <point x="537" y="446" type="line"/>
      <point x="511" y="446" type="line"/>
      <point x="511" y="637" type="line"/>
      <point x="332" y="637" type="line"/>
      <point x="332" y="663" type="line"/>
      <point x="511" y="663" type="line"/>
      <point x="511" y="856" type="line"/>
      <point x="537" y="856" type="line"/>
    </contour>
  </outline>
</glyph>
<glyph name="period.deva" format="1">
  <advance width="519"/>
  <unicode hex="002E"/>
  <outline>
    <contour>
      <point x="124" y="110" type="curve" smooth="yes"/>
      <point x="124" y="199"/>
      <point x="170" y="246"/>
      <point x="254" y="246" type="curve" smooth="yes"/>
      <point x="336" y="246"/>
      <point x="384" y="199"/>
      <point x="384" y="110" type="curve" smooth="yes"/>
      <point x="384" y="24"/>
      <point x="334" y="-25"/>
      <point x="254" y="-25" type="curve" smooth="yes"/>
      <point x="177" y="-25"/>
      <point x="124" y="18"/>
    </contour>
  </outline>
</glyph>
<glyph name="slash.deva" format="1">
  <advance width="714"/>
  <unicode hex="002F"/>
  <outline>
    <contour>
      <point x="699" y="1321" type="line"/>
      <point x="208" y="-5" type="line"/>
      <point x="16" y="-5" type="line"/>
      <point x="506" y="1321" type="line"/>
    </contour>
  </outline>
</glyph>
<glyph name="four.deva" format="1">
  <advance width="1056"/>
  <unicode hex="0034"/>
  <outline>
    <contour>
      <point x="1008" y="272" type="line"/>
      <point x="842" y="272" type="line"/>
      <point x="842" y="0" type="line"/>
      <point x="647" y="0" type="line"/>
      <point x="647" y="272" type="line"/>
      <point x="39" y="272" type="line"/>
      <point x="39" y="466" type="line"/>
      <point x="638" y="1323" type="line"/>
      <point x="842" y="1323" type="line"/>
      <point x="842" y="460" type="line"/>
      <point x="1008" y="460" type="line"/>
    </contour>
    <contour>
      <point x="647" y="460" type="line"/>
      <point x="647" y="953" type="line"/>
      <point x="647" y="953"/>
      <point x="649" y="1000"/>
      <point x="652" y="1095" type="curve"/>
      <point x="644" y="1095" type="line"/>
      <point x="599" y="1008"/>
      <point x="581" y="967"/>
      <point x="589" y="976" type="curve"/>
      <point x="225" y="460" type="line"/>
    </contour>
  </outline>
</glyph>
<glyph name="less.deva" format="1">
  <advance width="1051"/>
  <unicode hex="003C"/>
  <outline>
    <contour>
      <point x="963" y="202" type="line"/>
      <point x="86" y="589" type="line"/>
      <point x="86" y="695" type="line"/>
      <point x="963" y="1132" type="line"/>
      <point x="963" y="963" type="line"/>
      <point x="299" y="650" type="line"/>
      <point x="963" y="373" type="line"/>
    </contour>
  </outline>
</glyph>
<glyph name="C" format="1">
  <advance width="1179"/>
  <unicode hex="0043"/>
  <outline>
    <contour>
      <point x="740" y="1150" type="curve" smooth="yes"/>
      <point x="613" y="1150"/>
      <point x="513" y="1106"/>
      <point x="439" y="1017" type="curve" smooth="yes"/>
      <point x="367" y="929"/>
      <point x="329" y="809"/>
      <point x="329" y="656" type="curve" smooth="yes"/>
      <point x="329" y="498"/>
      <point x="365" y="377"/>
      <point x="439" y="292" type="curve" smooth="yes"/>
      <point x="513" y="206"/>
      <point x="616" y="163"/>
      <point x="750" y="163" type="curve" smooth="yes"/>
      <point x="825" y="163"/>
      <point x="934" y="181"/>
      <point x="1074" y="219" type="curve"/>
      <point x="1074" y="37" type="line"/>
      <point x="979" y="1"/>
      <point x="863" y="-18"/>
      <point x="725" y="-18" type="curve" smooth="yes"/>
      <point x="523" y="-18"/>
      <point x="369" y="40"/>
      <point x="266" y="155" type="curve" smooth="yes"/>
      <point x="161" y="272"/>
      <point x="108" y="439"/>
      <point x="108" y="659" type="curve"/>
      <point x="105" y="1068"/>
      <point x="353" y="1338"/>
      <point x="750" y="1335" type="curve"/>
      <point x="896" y="1335"/>
      <point x="1022" y="1309"/>
      <point x="1127" y="1255" type="curve"/>
      <point x="1037" y="1082" type="line"/>
      <point x="935" y="1128"/>
      <point x="836" y="1150"/>
    </contour>
  </outline>
</glyph>
<glyph name="D" format="1">
  <advance width="1346"/>
  <unicode hex="0044"/>
  <outline>
    <contour>
      <point x="1239" y="674" type="curve" smooth="yes"/>
      <point x="1239" y="457"/>
      <point x="1179" y="290"/>
      <point x="1060" y="174" type="curve" smooth="yes"/>
      <point x="941" y="58"/>
      <point x="772" y="0"/>
      <point x="551" y="0" type="curve" smooth="yes"/>
      <point x="170" y="0" type="line"/>
      <point x="170" y="1316" type="line"/>
      <point x="588" y="1316" type="line"/>
      <point x="794" y="1316"/>
      <point x="954" y="1260"/>
      <point x="1068" y="1148" type="curve" smooth="yes"/>
      <point x="1181" y="1037"/>
      <point x="1239" y="878"/>
    </contour>
    <contour>
      <point x="1021" y="667" type="curve" smooth="yes"/>
      <point x="1021" y="983"/>
      <point x="869" y="1141"/>
      <point x="568" y="1141" type="curve" smooth="yes"/>
      <point x="378" y="1141" type="line"/>
      <point x="378" y="175" type="line"/>
      <point x="535" y="175" type="line"/>
      <point x="860" y="175"/>
      <point x="1021" y="341"/>
    </contour>
  </outline>
</glyph>
<glyph name="H" format="1">
  <advance width="1374"/>
  <unicode hex="0048"/>
  <outline>
    <contour>
      <point x="1204" y="0" type="line"/>
      <point x="996" y="0" type="line"/>
      <point x="996" y="597" type="line"/>
      <point x="378" y="597" type="line"/>
      <point x="378" y="0" type="line"/>
      <point x="170" y="0" type="line"/>
      <point x="170" y="1316" type="line"/>
      <point x="378" y="1316" type="line"/>
      <point x="378" y="775" type="line"/>
      <point x="996" y="775" type="line"/>
      <point x="996" y="1316" type="line"/>
      <point x="1204" y="1316" type="line"/>
    </contour>
  </outline>
</glyph>
<glyph name="K" format="1">
  <advance width="1157"/>
  <unicode hex="004B"/>
  <outline>
    <contour>
      <point x="1157" y="0" type="line"/>
      <point x="917" y="0" type="line"/>
      <point x="520" y="611" type="line"/>
      <point x="375" y="496" type="line"/>
      <point x="375" y="0" type="line"/>
      <point x="167" y="0" type="line"/>
      <point x="167" y="1316" type="line"/>
      <point x="375" y="1316" type="line"/>
      <point x="375" y="681" type="line"/>
      <point x="383" y="697"/>
      <point x="481" y="804"/>
      <point x="505" y="837" type="curve"/>
      <point x="916" y="1316" type="line"/>
      <point x="1152" y="1316" type="line"/>
      <point x="667" y="745" type="line"/>
    </contour>
  </outline>
</glyph>
<glyph name="O" format="1">
  <advance width="1444"/>
  <unicode hex="004F"/>
  <outline>
    <contour>
      <point x="0" y="0" type="line"/>
      <point x="1444" y="0" type="line"/>
      <point x="1444" y="20" type="line"/>
      <point x="0" y="20" type="line"/>
    </contour>
  </outline>
</glyph>
<glyph name="Q" format="1">
  <advance width="1444"/>
  <unicode hex="0051"/>
  <outline>
    <contour>
      <point x="0" y="0" type="line"/>
      <point x="1444" y="0" type="line"/>
      <point x="1444" y="20" type="line"/>
      <point x="0" y="20" type="line"/>
    </contour>
  </outline>
</glyph>
<glyph name="Z" format="1">
  <advance width="1072"/>
  <unicode hex="005A"/>
  <outline>
    <contour>
      <point x="1006" y="0" type="line"/>
      <point x="69" y="0" type="line"/>
      <point x="69" y="147" type="line"/>
      <point x="732" y="1138" type="line"/>
      <point x="88" y="1138" type="line"/>
      <point x="88" y="1316" type="line"/>
      <point x="987" y="1316" type="line"/>
      <point x="987" y="1169" type="line"/>
      <point x="324" y="179" type="line"/>
      <point x="1006" y="179" type="line"/>
    </contour>
  </outline>
</glyph>
<glyph name="backslash.deva" format="1">
  <advance width="714"/>
  <unicode hex="005C"/>
  <outline>
    <contour>
      <point x="207" y="1321" type="line"/>
      <point x="700" y="-5" type="line"/>
      <point x="506" y="-5" type="line"/>
      <point x="17" y="1321" type="line"/>
    </contour>
  </outline>
</glyph>
<glyph name="bracketright.deva" format="1">
  <advance width="605"/>
  <unicode hex="005D"/>
  <outline>
    <contour>
      <point x="45" y="-142" type="line"/>
      <point x="279" y="-142" type="line"/>
      <point x="279" y="1171" type="line"/>
      <point x="45" y="1171" type="line"/>
      <point x="45" y="1326" type="line"/>
      <point x="466" y="1326" type="line"/>
      <point x="466" y="-297" type="line"/>
      <point x="45" y="-297" type="line"/>
    </contour>
  </outline>
</glyph>
<glyph name="f" format="1">
  <advance width="689"/>
  <unicode hex="0066"/>
  <outline>
    <contour>
      <point x="671" y="842" type="line"/>
      <point x="401" y="842" type="line"/>
      <point x="401" y="0" type="line"/>
      <point x="197" y="0" type="line"/>
      <point x="197" y="842" type="line"/>
      <point x="26" y="842" type="line"/>
      <point x="26" y="925" type="line"/>
      <point x="197" y="997" type="line"/>
      <point x="197" y="1034" type="line"/>
      <point x="197" y="1277"/>
      <point x="324" y="1410"/>
      <point x="547" y="1410" type="curve" smooth="yes"/>
      <point x="597" y="1410"/>
      <point x="664" y="1398"/>
      <point x="750" y="1373" type="curve"/>
      <point x="694" y="1215" type="line"/>
      <point x="629" y="1237"/>
      <point x="578" y="1248"/>
      <point x="542" y="1248" type="curve" smooth="yes"/>
      <point x="455" y="1248"/>
      <point x="401" y="1180"/>
      <point x="401" y="1033" type="curve" smooth="yes"/>
      <point x="401" y="993" type="line"/>
      <point x="671" y="993" type="line"/>
    </contour>
  </outline>
</glyph>
<glyph name="h" format="1">
  <advance width="1170"/>
  <unicode hex="0068"/>
  <outline>
    <contour>
      <point x="821" y="0" type="line"/>
      <point x="821" y="642" type="line"/>
      <point x="821" y="771"/>
      <point x="760" y="842"/>
      <point x="621" y="842" type="curve" smooth="yes"/>
      <point x="435" y="842"/>
      <point x="357" y="743"/>
      <point x="357" y="495" type="curve" smooth="yes"/>
      <point x="357" y="0" type="line"/>
      <point x="153" y="0" type="line"/>
      <point x="153" y="1400" type="line"/>
      <point x="357" y="1400" type="line"/>
      <point x="357" y="995" type="line"/>
      <point x="357" y="898"/>
      <point x="358" y="930"/>
      <point x="348" y="868" type="curve"/>
      <point x="359" y="868" type="line"/>
      <point x="405" y="943"/>
      <point x="523" y="1008"/>
      <point x="639" y="1008" type="curve" smooth="yes"/>
      <point x="897" y="1008"/>
      <point x="1027" y="908"/>
      <point x="1027" y="646" type="curve" smooth="yes"/>
      <point x="1027" y="0" type="line"/>
    </contour>
  </outline>
</glyph>
<glyph name="i" format="1">
  <advance width="502"/>
  <unicode hex="0069"/>
  <outline>
    <contour>
      <point x="353" y="0" type="line"/>
      <point x="149" y="0" type="line"/>
      <point x="149" y="995" type="line"/>
      <point x="353" y="995" type="line"/>
    </contour>
    <contour>
      <point x="137" y="1259" type="curve" smooth="yes"/>
      <point x="137" y="1338"/>
      <point x="179" y="1374"/>
      <point x="252" y="1374" type="curve" smooth="yes"/>
      <point x="322" y="1374"/>
      <point x="367" y="1336"/>
      <point x="367" y="1259" type="curve" smooth="yes"/>
      <point x="367" y="1182"/>
      <point x="321" y="1145"/>
      <point x="252" y="1145" type="curve" smooth="yes"/>
      <point x="181" y="1145"/>
      <point x="137" y="1182"/>
    </contour>
  </outline>
</glyph>
<glyph name="m" format="1">
  <advance width="1749"/>
  <unicode hex="006D"/>
  <outline>
    <contour>
      <point x="1404" y="0" type="line"/>
      <point x="1404" y="618" type="line"/>
      <point x="1404" y="770"/>
      <point x="1347" y="846"/>
      <point x="1221" y="846" type="curve" smooth="yes"/>
      <point x="1056" y="846"/>
      <point x="980" y="745"/>
      <point x="980" y="531" type="curve" smooth="yes"/>
      <point x="980" y="0" type="line"/>
      <point x="776" y="0" type="line"/>
      <point x="776" y="618" type="line"/>
      <point x="776" y="770"/>
      <point x="719" y="846"/>
      <point x="593" y="846" type="curve" smooth="yes"/>
      <point x="426" y="846"/>
      <point x="352" y="745"/>
      <point x="352" y="498" type="curve" smooth="yes"/>
      <point x="352" y="0" type="line"/>
      <point x="148" y="0" type="line"/>
      <point x="148" y="995" type="line"/>
      <point x="309" y="995" type="line"/>
      <point x="338" y="863" type="line"/>
      <point x="349" y="863" type="line"/>
      <point x="405" y="958"/>
      <point x="513" y="1013"/>
      <point x="641" y="1013" type="curve" smooth="yes"/>
      <point x="793" y="1013"/>
      <point x="895" y="960"/>
      <point x="945" y="855" type="curve"/>
      <point x="959" y="855" type="line"/>
      <point x="1017" y="953"/>
      <point x="1131" y="1013"/>
      <point x="1269" y="1013" type="curve" smooth="yes"/>
      <point x="1497" y="1013"/>
      <point x="1608" y="900"/>
      <point x="1608" y="648" type="curve" smooth="yes"/>
      <point x="1608" y="0" type="line"/>
    </contour>
  </outline>
</glyph>
<glyph name="n" format="1">
  <advance width="1159"/>
  <unicode hex="006E"/>
  <outline>
    <contour>
      <point x="815" y="0" type="line"/>
      <point x="815" y="616" type="line"/>
      <point x="815" y="770"/>
      <point x="753" y="846"/>
      <point x="616" y="846" type="curve" smooth="yes"/>
      <point x="525" y="846"/>
      <point x="458" y="819"/>
      <point x="416" y="765" type="curve" smooth="yes"/>
      <point x="374" y="712"/>
      <point x="352" y="623"/>
      <point x="352" y="498" type="curve" smooth="yes"/>
      <point x="352" y="0" type="line"/>
      <point x="148" y="0" type="line"/>
      <point x="148" y="995" type="line"/>
      <point x="309" y="995" type="line"/>
      <point x="338" y="863" type="line"/>
      <point x="349" y="863" type="line"/>
      <point x="410" y="959"/>
      <point x="525" y="1013"/>
      <point x="661" y="1013" type="curve" smooth="yes"/>
      <point x="895" y="1013"/>
      <point x="1019" y="896"/>
      <point x="1019" y="648" type="curve" smooth="yes"/>
      <point x="1019" y="0" type="line"/>
    </contour>
  </outline>
</glyph>
<glyph name="r" format="1">
  <advance width="782"/>
  <unicode hex="0072"/>
  <outline>
    <contour>
      <point x="632" y="1015" type="curve" smooth="yes"/>
      <point x="668" y="1015"/>
      <point x="706" y="1011"/>
      <point x="744" y="1005" type="curve" smooth="yes"/>
      <point x="744" y="955" type="line"/>
      <point x="721" y="961"/>
      <point x="684" y="818"/>
      <point x="659" y="818" type="curve"/>
      <point x="600" y="821"/>
      <point x="543" y="803"/>
      <point x="491" y="763" type="curve" smooth="yes"/>
      <point x="394" y="723"/>
      <point x="350" y="641"/>
      <point x="350" y="523" type="curve" smooth="yes"/>
      <point x="350" y="0" type="line"/>
      <point x="145" y="0" type="line"/>
      <point x="145" y="996" type="line"/>
      <point x="302" y="996" type="line"/>
      <point x="332" y="826" type="line"/>
      <point x="343" y="826" type="line"/>
      <point x="378" y="890"/>
      <point x="420" y="938"/>
      <point x="469" y="968" type="curve" smooth="yes"/>
      <point x="518" y="999"/>
      <point x="572" y="1015"/>
    </contour>
  </outline>
</glyph>
<glyph name="w" format="1">
  <advance width="1524"/>
  <unicode hex="0077"/>
  <outline>
    <contour>
      <point x="980" y="0" type="line"/>
      <point x="828" y="512" type="line"/>
      <point x="820" y="538"/>
      <point x="794" y="634"/>
      <point x="755" y="793" type="curve"/>
      <point x="747" y="793" type="line"/>
      <point x="701" y="595"/>
      <point x="679" y="502"/>
      <point x="645" y="394" type="curve" smooth="yes"/>
      <point x="329" y="-579" type="line"/>
      <point x="196" y="0" type="line"/>
      <point x="-234" y="1862" type="line"/>
      <point x="309" y="993" type="line"/>
      <point x="430" y="527"/>
      <point x="438" y="170"/>
      <point x="501" y="-76" type="curve" smooth="yes"/>
      <point x="563" y="-319"/>
      <point x="459" y="18"/>
      <point x="469" y="-67" type="curve"/>
      <point x="436" y="58"/>
      <point x="428" y="149"/>
      <point x="418" y="208" type="curve"/>
      <point x="431" y="274"/>
      <point x="446" y="357"/>
      <point x="474" y="459" type="curve" smooth="yes"/>
      <point x="471" y="438"/>
      <point x="471" y="437"/>
      <point x="477" y="454" type="curve"/>
      <point x="640" y="993" type="line"/>
      <point x="874" y="993" type="line"/>
      <point x="1036" y="453" type="line"/>
      <point x="1062" y="384"/>
      <point x="1081" y="302"/>
      <point x="1096" y="211" type="curve"/>
      <point x="1104" y="211" type="line"/>
      <point x="1105" y="218"/>
      <point x="1095" y="187"/>
      <point x="1075" y="121" type="curve" smooth="yes"/>
      <point x="1096" y="206"/>
      <point x="1081" y="164"/>
      <point x="1298" y="993" type="curve"/>
      <point x="1511" y="993" type="line"/>
      <point x="1232" y="0" type="line"/>
    </contour>
  </outline>
</glyph>
<glyph name="braceright.deva" format="1">
  <advance width="562"/>
  <unicode hex="007D"/>
  <outline>
    <contour>
      <point x="531" y="652" type="line"/>
      <point x="278" y="566"/>
      <point x="106" y="646"/>
      <point x="3" y="869" type="curve" smooth="yes"/>
      <point x="3" y="1364" type="line"/>
      <point x="106" y="1560"/>
      <point x="23" y="1611"/>
      <point x="-233" y="1479" type="curve"/>
      <point x="-233" y="1471" type="line"/>
      <point x="-26" y="1361"/>
      <point x="200" y="1256"/>
      <point x="467" y="1150" type="curve" smooth="yes"/>
      <point x="586" y="1052"/>
      <point x="647" y="844"/>
      <point x="647" y="670" type="curve" smooth="yes"/>
      <point x="462" y="670"/>
      <point x="359" y="235"/>
      <point x="359" y="395" type="curve"/>
      <point x="359" y="176"/>
      <point x="485" y="358"/>
      <point x="780" y="352" type="curve"/>
      <point x="780" y="459"/>
      <point x="725" y="269"/>
      <point x="596" y="271" type="curve"/>
      <point x="322" y="271"/>
      <point x="175" y="243"/>
      <point x="175" y="7" type="curve" smooth="yes"/>
      <point x="297" y="8"/>
      <point x="359" y="-449"/>
      <point x="359" y="-340" type="curve"/>
      <point x="359" y="-687"/>
      <point x="119" y="-620"/>
      <point x="-312" y="-626" type="curve"/>
      <point x="-312" y="-543"/>
      <point x="-289" y="-243"/>
      <point x="-245" y="-203" type="curve"/>
      <point x="50" y="-158"/>
      <point x="257" y="-41"/>
      <point x="361" y="191" type="curve" smooth="yes"/>
      <point x="361" y="623" type="line"/>
      <point x="211" y="879"/>
      <point x="274" y="955"/>
      <point x="531" y="890" type="curve"/>
    </contour>
  </outline>
</glyph>
<glyph name="ghadeva" format="1">
  <advance width="1370"/>
  <unicode hex="0918"/>
  <outline>
    <contour>
      <point x="745" y="720" type="line"/>
      <point x="731" y="719" type="line"/>
      <point x="534" y="714"/>
      <point x="462" y="629"/>
      <point x="462" y="537" type="curve" smooth="yes"/>
      <point x="462" y="453"/>
      <point x="536" y="387"/>
      <point x="641" y="387" type="curve" smooth="yes"/>
      <point x="780" y="387"/>
      <point x="908" y="466"/>
      <point x="984" y="585" type="curve"/>
      <point x="984" y="314" type="line"/>
      <point x="903" y="256"/>
      <point x="794" y="215"/>
      <point x="664" y="215" type="curve" smooth="yes"/>
      <point x="419" y="215"/>
      <point x="272" y="369"/>
      <point x="272" y="560" type="curve" smooth="yes"/>
      <point x="272" y="721"/>
      <point x="388" y="885"/>
      <point x="681" y="885" type="curve" smooth="yes"/>
      <point x="692" y="885" type="line"/>
    </contour>
    <contour>
      <point x="388" y="727" type="line"/>
      <point x="172" y="784"/>
      <point x="84" y="909"/>
      <point x="84" y="1052" type="curve" smooth="yes"/>
      <point x="84" y="1115"/>
      <point x="101" y="1177"/>
      <point x="143" y="1231" type="curve"/>
      <point x="347" y="1187" type="line"/>
      <point x="307" y="1140"/>
      <point x="292" y="1086"/>
      <point x="292" y="1033" type="curve" smooth="yes"/>
      <point x="292" y="951"/>
      <point x="353" y="863"/>
      <point x="548" y="845" type="curve"/>
    </contour>
    <contour>
      <point x="-30" y="1136" type="line"/>
      <point x="-30" y="1283" type="line"/>
      <point x="1400" y="1283" type="line"/>
      <point x="1400" y="1136" type="line"/>
    </contour>
    <contour>
      <point x="938" y="1169" type="line"/>
      <point x="1145" y="1169" type="line"/>
      <point x="1145" y="0" type="line"/>
      <point x="938" y="0" type="line"/>
    </contour>
    <contour>
      <point x="938" y="1283" type="move" name="top"/>
    </contour>
  </outline>
</glyph>
<glyph name="cadeva" format="1">
  <advance width="1398"/>
  <unicode hex="091A"/>
  <outline>
    <contour>
      <point x="79" y="727" type="line"/>
      <point x="79" y="896" type="line"/>
      <point x="807" y="896" type="line"/>
      <point x="807" y="727" type="line"/>
    </contour>
    <contour>
      <point x="1003" y="557" type="curve"/>
      <point x="1003" y="304" type="line"/>
      <point x="938" y="248"/>
      <point x="829" y="209"/>
      <point x="708" y="209" type="curve" smooth="yes"/>
      <point x="467" y="209"/>
      <point x="315" y="354"/>
      <point x="315" y="547" type="curve" smooth="yes"/>
      <point x="315" y="723"/>
      <point x="442" y="872"/>
      <point x="710" y="872" type="curve"/>
      <point x="746" y="729" type="line"/>
      <point x="591" y="729"/>
      <point x="505" y="632"/>
      <point x="505" y="531" type="curve" smooth="yes"/>
      <point x="505" y="441"/>
      <point x="581" y="378"/>
      <point x="689" y="378" type="curve" smooth="yes"/>
      <point x="808" y="378"/>
      <point x="929" y="442"/>
    </contour>
    <contour>
      <point x="-30" y="1136" type="line"/>
      <point x="-30" y="1283" type="line"/>
      <point x="1428" y="1283" type="line"/>
      <point x="1428" y="1136" type="line"/>
    </contour>
    <contour>
      <point x="967" y="1169" type="line"/>
      <point x="1173" y="1169" type="line"/>
      <point x="1173" y="0" type="line"/>
      <point x="967" y="0" type="line"/>
    </contour>
    <contour>
      <point x="967" y="1283" type="move" name="top"/>
    </contour>
  </outline>
</glyph>
<glyph name="chadeva" format="1">
  <advance width="1513"/>
  <unicode hex="091B"/>
  <outline>
    <contour>
      <point x="651" y="783" type="curve"/>
      <point x="704" y="618" type="line"/>
      <point x="702" y="618"/>
      <point x="700" y="618"/>
      <point x="698" y="618" type="curve" smooth="yes"/>
      <point x="481" y="611"/>
      <point x="414" y="510"/>
      <point x="414" y="409" type="curve" smooth="yes"/>
      <point x="414" y="297"/>
      <point x="512" y="209"/>
      <point x="689" y="209" type="curve" smooth="yes"/>
      <point x="981" y="209"/>
      <point x="1243" y="444"/>
      <point x="1243" y="670" type="curve" smooth="yes"/>
      <point x="1243" y="774"/>
      <point x="1183" y="830"/>
      <point x="1108" y="830" type="curve" smooth="yes"/>
      <point x="1038" y="830"/>
      <point x="985" y="776"/>
      <point x="985" y="698" type="curve" smooth="yes"/>
      <point x="985" y="598"/>
      <point x="1057" y="501"/>
      <point x="1245" y="386" type="curve"/>
      <point x="1139" y="273" type="line"/>
      <point x="911" y="411"/>
      <point x="808" y="568"/>
      <point x="808" y="724" type="curve" smooth="yes"/>
      <point x="808" y="869"/>
      <point x="920" y="990"/>
      <point x="1097" y="990" type="curve" smooth="yes"/>
      <point x="1284" y="990"/>
      <point x="1416" y="869"/>
      <point x="1416" y="653" type="curve" smooth="yes"/>
      <point x="1416" y="375"/>
      <point x="1112" y="37"/>
      <point x="696" y="37" type="curve" smooth="yes"/>
      <point x="366" y="37"/>
      <point x="206" y="227"/>
      <point x="206" y="436" type="curve" smooth="yes"/>
      <point x="206" y="613"/>
      <point x="345" y="777"/>
      <point x="646" y="783" type="curve" smooth="yes"/>
      <point x="648" y="783"/>
      <point x="649" y="783"/>
    </contour>
    <contour>
      <point x="544" y="747" type="curve"/>
      <point x="395" y="631" type="line"/>
      <point x="187" y="697"/>
      <point x="103" y="816"/>
      <point x="103" y="967" type="curve" smooth="yes"/>
      <point x="103" y="1095"/>
      <point x="213" y="1240"/>
      <point x="455" y="1265" type="curve"/>
      <point x="547" y="1156" type="line"/>
      <point x="376" y="1133"/>
      <point x="309" y="1025"/>
      <point x="309" y="944" type="curve" smooth="yes"/>
      <point x="309" y="851"/>
      <point x="378" y="773"/>
    </contour>
    <contour>
      <point x="1543" y="1136" type="line"/>
      <point x="-30" y="1136" type="line"/>
      <point x="-30" y="1283" type="line"/>
      <point x="1543" y="1283" type="line"/>
    </contour>
    <contour>
      <point x="1082" y="1189" type="line"/>
      <point x="1288" y="1189" type="line"/>
      <point x="1288" y="921" type="line"/>
      <point x="1082" y="921" type="line"/>
    </contour>
    <contour>
      <point x="603" y="59" type="move" name="btm"/>
    </contour>
    <contour>
      <point x="986" y="1283" type="move" name="top"/>
    </contour>
  </outline>
</glyph>
<glyph name="ttadeva" format="1">
  <advance width="1162"/>
  <unicode hex="091F"/>
  <outline>
    <contour>
      <point x="726" y="1174" type="line"/>
      <point x="932" y="1174" type="line"/>
      <point x="932" y="736" type="line"/>
      <point x="634" y="736" type="line"/>
      <point x="412" y="736"/>
      <point x="309" y="635"/>
      <point x="309" y="483" type="curve" smooth="yes"/>
      <point x="309" y="334"/>
      <point x="438" y="226"/>
      <point x="640" y="226" type="curve" smooth="yes"/>
      <point x="747" y="226"/>
      <point x="834" y="242"/>
      <point x="962" y="291" type="curve"/>
      <point x="1004" y="117" type="line"/>
      <point x="879" y="72"/>
      <point x="788" y="57"/>
      <point x="660" y="57" type="curve" smooth="yes"/>
      <point x="322" y="57"/>
      <point x="106" y="257"/>
      <point x="106" y="511" type="curve" smooth="yes"/>
      <point x="106" y="747"/>
      <point x="277" y="896"/>
      <point x="569" y="896" type="curve" smooth="yes"/>
      <point x="765" y="896" type="line"/>
      <point x="726" y="860" type="line"/>
    </contour>
    <contour>
      <point x="1192" y="1136" type="line"/>
      <point x="-30" y="1136" type="line"/>
      <point x="-30" y="1283" type="line"/>
      <point x="1192" y="1283" type="line"/>
    </contour>
    <contour>
      <point x="547" y="65" type="move" name="btm"/>
    </contour>
    <contour>
      <point x="711" y="1283" type="move" name="top"/>
    </contour>
  </outline>
</glyph>
<glyph name="tthadeva" format="1">
  <advance width="1277"/>
  <unicode hex="0920"/>
  <outline>
    <contour>
      <point x="992" y="495" type="curve" smooth="yes"/>
      <point x="992" y="588"/>
      <point x="958" y="660"/>
      <point x="878" y="735" type="curve"/>
      <point x="643" y="735" type="line"/>
      <point x="401" y="735"/>
      <point x="304" y="639"/>
      <point x="304" y="487" type="curve" smooth="yes"/>
      <point x="304" y="337"/>
      <point x="441" y="218"/>
      <point x="640" y="218" type="curve" smooth="yes"/>
      <point x="856" y="218"/>
      <point x="992" y="329"/>
    </contour>
    <contour>
      <point x="1307" y="1136" type="line"/>
      <point x="-30" y="1136" type="line"/>
      <point x="-30" y="1283" type="line"/>
      <point x="1307" y="1283" type="line"/>
    </contour>
    <contour>
      <point x="836" y="1167" type="line"/>
      <point x="1042" y="1167" type="line"/>
      <point x="1042" y="769" type="line"/>
      <point x="994" y="861" type="line"/>
      <point x="1104" y="759"/>
      <point x="1178" y="629"/>
      <point x="1178" y="467" type="curve" smooth="yes"/>
      <point x="1178" y="234"/>
      <point x="984" y="57"/>
      <point x="665" y="57" type="curve" smooth="yes"/>
      <point x="325" y="57"/>
      <point x="106" y="266"/>
      <point x="106" y="515" type="curve" smooth="yes"/>
      <point x="106" y="749"/>
      <point x="280" y="896"/>
      <point x="565" y="896" type="curve" smooth="yes"/>
      <point x="886" y="896" type="line"/>
      <point x="836" y="853" type="line"/>
    </contour>
    <contour>
      <point x="547" y="65" type="move" name="btm"/>
    </contour>
    <contour>
      <point x="786" y="1283" type="move" name="top"/>
    </contour>
  </outline>
</glyph>
<glyph name="vadeva" format="1">
  <advance width="1205"/>
  <unicode hex="0935"/>
  <outline>
    <contour>
      <point x="1235" y="1136" type="line"/>
      <point x="-30" y="1136" type="line"/>
      <point x="-30" y="1283" type="line"/>
      <point x="1235" y="1283" type="line"/>
    </contour>
    <contour>
      <point x="807" y="546" type="curve"/>
      <point x="806" y="320" type="line"/>
      <point x="741" y="264"/>
      <point x="643" y="225"/>
      <point x="533" y="225" type="curve" smooth="yes"/>
      <point x="275" y="225"/>
      <point x="98" y="412"/>
      <point x="98" y="633" type="curve" smooth="yes"/>
      <point x="98" y="823"/>
      <point x="249" y="950"/>
      <point x="478" y="950" type="curve" smooth="yes"/>
      <point x="614" y="950"/>
      <point x="735" y="926"/>
      <point x="847" y="877" type="curve"/>
      <point x="847" y="711" type="line"/>
      <point x="721" y="765"/>
      <point x="621" y="787"/>
      <point x="523" y="787" type="curve" smooth="yes"/>
      <point x="364" y="787"/>
      <point x="289" y="706"/>
      <point x="289" y="600" type="curve" smooth="yes"/>
      <point x="289" y="489"/>
      <point x="378" y="392"/>
      <point x="507" y="392" type="curve" smooth="yes"/>
      <point x="617" y="392"/>
      <point x="712" y="441"/>
    </contour>
    <contour>
      <point x="773" y="1169" type="line"/>
      <point x="980" y="1169" type="line"/>
      <point x="980" y="0" type="line"/>
      <point x="773" y="0" type="line"/>
    </contour>
    <contour>
      <point x="773" y="1283" type="move" name="top"/>
    </contour>
  </outline>
</glyph>
<glyph name="aivowelsigndeva" format="1">
  <unicode hex="0948"/>
  <outline>
    <contour>
      <point x="-687" y="1244" type="line"/>
      <point x="-1184" y="1605" type="line"/>
      <point x="-1048" y="1739" type="line"/>
      <point x="-409" y="1244" type="line"/>
    </contour>
    <contour>
      <point x="-419" y="1244" type="line"/>
      <point x="-653" y="1799" type="line"/>
      <point x="-467" y="1856" type="line"/>
      <point x="-224" y="1244" type="line"/>
    </contour>
    <contour>
      <point x="-434" y="1283" type="move" name="_top"/>
    </contour>
  </outline>
</glyph>
<glyph name="zerodeva" format="1">
  <advance width="1154"/>
  <unicode hex="0966"/>
  <outline>
    <contour>
      <point x="572" y="1117" type="curve" smooth="yes"/>
      <point x="869" y="1117"/>
      <point x="1051" y="905"/>
      <point x="1051" y="646" type="curve" smooth="yes"/>
      <point x="1051" y="409"/>
      <point x="880" y="203"/>
      <point x="588" y="203" type="curve" smooth="yes"/>
      <point x="301" y="203"/>
      <point x="106" y="410"/>
      <point x="106" y="680" type="curve" smooth="yes"/>
      <point x="106" y="905"/>
      <point x="282" y="1117"/>
    </contour>
    <contour>
      <point x="575" y="383" type="curve" smooth="yes"/>
      <point x="740" y="383"/>
      <point x="854" y="501"/>
      <point x="854" y="665" type="curve" smooth="yes"/>
      <point x="854" y="818"/>
      <point x="747" y="939"/>
      <point x="584" y="939" type="curve" smooth="yes"/>
      <point x="416" y="939"/>
      <point x="308" y="809"/>
      <point x="308" y="656" type="curve" smooth="yes"/>
      <point x="308" y="492"/>
      <point x="429" y="383"/>
    </contour>
  </outline>
</glyph>
<glyph name="threedeva" format="1">
  <advance width="954"/>
  <unicode hex="0969"/>
  <outline>
    <contour>
      <point x="306" y="147" type="line"/>
      <point x="467" y="201" type="line"/>
      <point x="617" y="-98" type="line"/>
      <point x="457" y="-162" type="line"/>
    </contour>
    <contour>
      <point x="654" y="691" type="curve"/>
      <point x="483" y="761" type="line"/>
      <point x="564" y="820"/>
      <point x="602" y="888"/>
      <point x="602" y="969" type="curve" smooth="yes"/>
      <point x="602" y="1044"/>
      <point x="539" y="1118"/>
      <point x="421" y="1118" type="curve" smooth="yes"/>
      <point x="318" y="1118"/>
      <point x="221" y="1080"/>
      <point x="144" y="1035" type="curve"/>
      <point x="78" y="1201" type="line"/>
      <point x="177" y="1252"/>
      <point x="281" y="1286"/>
      <point x="430" y="1286" type="curve" smooth="yes"/>
      <point x="676" y="1286"/>
      <point x="790" y="1134"/>
      <point x="790" y="978" type="curve" smooth="yes"/>
      <point x="790" y="871"/>
      <point x="743" y="765"/>
    </contour>
    <contour>
      <point x="462" y="815" type="curve" smooth="yes"/>
      <point x="717" y="815"/>
      <point x="858" y="639"/>
      <point x="858" y="442" type="curve" smooth="yes"/>
      <point x="858" y="238"/>
      <point x="689" y="87"/>
      <point x="393" y="87" type="curve" smooth="yes"/>
      <point x="197" y="87"/>
      <point x="126" y="134"/>
      <point x="126" y="200" type="curve" smooth="yes"/>
      <point x="126" y="282"/>
      <point x="229" y="376"/>
      <point x="322" y="376" type="curve" smooth="yes"/>
      <point x="382" y="376"/>
      <point x="432" y="331"/>
      <point x="467" y="218" type="curve"/>
      <point x="247" y="267" type="line"/>
      <point x="308" y="256"/>
      <point x="365" y="256"/>
      <point x="399" y="256" type="curve" smooth="yes"/>
      <point x="569" y="256"/>
      <point x="670" y="345"/>
      <point x="670" y="450" type="curve" smooth="yes"/>
      <point x="670" y="554"/>
      <point x="598" y="639"/>
      <point x="460" y="639" type="curve" smooth="yes"/>
      <point x="380" y="639"/>
      <point x="307" y="624"/>
      <point x="237" y="598" type="curve"/>
      <point x="191" y="769" type="line"/>
      <point x="272" y="795"/>
      <point x="366" y="815"/>
    </contour>
  </outline>
</glyph>
<glyph name="fivedeva" format="1">
  <advance width="1148"/>
  <unicode hex="096B"/>
  <outline>
    <contour>
      <point x="322" y="664" type="curve" smooth="yes"/>
      <point x="322" y="511"/>
      <point x="422" y="427"/>
      <point x="547" y="427" type="curve" smooth="yes"/>
      <point x="672" y="427"/>
      <point x="771" y="494"/>
      <point x="834" y="585" type="curve"/>
      <point x="735" y="441" type="line"/>
      <point x="684" y="523"/>
      <point x="668" y="565"/>
      <point x="668" y="609" type="curve" smooth="yes"/>
      <point x="668" y="661"/>
      <point x="706" y="711"/>
      <point x="811" y="711" type="curve" smooth="yes"/>
      <point x="957" y="711"/>
      <point x="1045" y="652"/>
      <point x="1045" y="579" type="curve" smooth="yes"/>
      <point x="1045" y="462"/>
      <point x="845" y="255"/>
      <point x="559" y="255" type="curve" smooth="yes"/>
      <point x="307" y="255"/>
      <point x="123" y="429"/>
      <point x="123" y="674" type="curve" smooth="yes"/>
      <point x="123" y="889"/>
      <point x="240" y="1100"/>
      <point x="473" y="1285" type="curve"/>
      <point x="656" y="1180" type="line"/>
      <point x="426" y="1004"/>
      <point x="322" y="836"/>
    </contour>
    <contour>
      <point x="737" y="454" type="line"/>
      <point x="907" y="525" type="line"/>
      <point x="1197" y="-64" type="line"/>
      <point x="1025" y="-136" type="line"/>
    </contour>
  </outline>
</glyph>
<glyph name="sevendeva" format="1">
  <advance width="1230"/>
  <unicode hex="096D"/>
  <outline>
    <contour>
      <point x="1020" y="473" type="curve"/>
      <point x="1019" y="472"/>
      <point x="956" y="331"/>
      <point x="956" y="331" type="curve"/>
      <point x="607" y="405"/>
      <point x="465" y="569"/>
      <point x="465" y="759" type="curve" smooth="yes"/>
      <point x="465" y="919"/>
      <point x="568" y="1039"/>
      <point x="751" y="1039" type="curve" smooth="yes"/>
      <point x="964" y="1039"/>
      <point x="1143" y="863"/>
      <point x="1143" y="585" type="curve" smooth="yes"/>
      <point x="1143" y="313"/>
      <point x="952" y="92"/>
      <point x="665" y="92" type="curve" smooth="yes"/>
      <point x="355" y="92"/>
      <point x="123" y="323"/>
      <point x="123" y="749" type="curve" smooth="yes"/>
      <point x="123" y="929"/>
      <point x="164" y="1131"/>
      <point x="216" y="1271" type="curve"/>
      <point x="405" y="1214" type="line"/>
      <point x="343" y="1049"/>
      <point x="308" y="861"/>
      <point x="308" y="688" type="curve" smooth="yes"/>
      <point x="308" y="407"/>
      <point x="461" y="262"/>
      <point x="643" y="262" type="curve" smooth="yes"/>
      <point x="831" y="262"/>
      <point x="957" y="426"/>
      <point x="957" y="619" type="curve" smooth="yes"/>
      <point x="957" y="757"/>
      <point x="874" y="865"/>
      <point x="780" y="865" type="curve" smooth="yes"/>
      <point x="698" y="865"/>
      <point x="653" y="812"/>
      <point x="653" y="732" type="curve" smooth="yes"/>
      <point x="653" y="624"/>
      <point x="740" y="524"/>
    </contour>
  </outline>
</glyph>
<glyph name="abbreviationsigndeva" format="1">
  <advance width="846"/>
  <unicode hex="0970"/>
  <outline>
    <contour>
      <point x="424" y="388" type="curve" smooth="yes"/>
      <point x="230" y="388"/>
      <point x="87" y="529"/>
      <point x="87" y="704" type="curve" smooth="yes"/>
      <point x="87" y="878"/>
      <point x="222" y="1012"/>
      <point x="419" y="1012" type="curve" smooth="yes"/>
      <point x="614" y="1012"/>
      <point x="754" y="873"/>
      <point x="754" y="698" type="curve" smooth="yes"/>
      <point x="754" y="523"/>
      <point x="618" y="388"/>
    </contour>
    <contour>
      <point x="420" y="869" type="curve" smooth="yes"/>
      <point x="326" y="869"/>
      <point x="248" y="803"/>
      <point x="248" y="702" type="curve" smooth="yes"/>
      <point x="248" y="593"/>
      <point x="327" y="532"/>
      <point x="420" y="532" type="curve" smooth="yes"/>
      <point x="513" y="532"/>
      <point x="593" y="594"/>
      <point x="593" y="701" type="curve" smooth="yes"/>
      <point x="593" y="802"/>
      <point x="510" y="869"/>
    </contour>
  </outline>
</glyph>
<glyph name="quotedblleft.deva" format="1">
  <advance width="807"/>
  <unicode hex="201C"/>
  <outline>
    <contour>
      <point x="0" y="0" type="line"/>
      <point x="807" y="0" type="line"/>
      <point x="807" y="20" type="line"/>
      <point x="0" y="20" type="line"/>
    </contour>
  </outline>
</glyph>
<glyph name="dabhadeva" format="1">
  <advance width="1599"/>
  <outline>
    <contour>
      <point x="475" y="168" type="curve"/>
      <point x="525" y="39" type="line"/>
      <point x="452" y="-22"/>
      <point x="378" y="-52"/>
      <point x="282" y="-52" type="curve" smooth="yes"/>
      <point x="124" y="-52"/>
      <point x="0" y="58"/>
      <point x="0" y="206" type="curve" smooth="yes"/>
      <point x="0" y="332"/>
      <point x="106" y="440"/>
      <point x="266" y="440" type="curve" smooth="yes"/>
      <point x="423" y="440"/>
      <point x="517" y="360"/>
      <point x="585" y="238" type="curve" smooth="yes"/>
      <point x="756" y="-66" type="line"/>
      <point x="712" y="-54" type="line"/>
      <point x="1202" y="200" type="line"/>
      <point x="1279" y="60" type="line"/>
      <point x="783" y="-199" type="line"/>
      <point x="801" y="-151" type="line"/>
      <point x="858" y="-257" type="line"/>
      <point x="869" y="-278"/>
      <point x="874" y="-298"/>
      <point x="874" y="-314" type="curve" smooth="yes"/>
      <point x="872" y="-348"/>
      <point x="840" y="-373"/>
      <point x="775" y="-373" type="curve" smooth="yes"/>
      <point x="640" y="-373"/>
      <point x="469" y="-290"/>
      <point x="469" y="-222" type="curve" smooth="yes"/>
      <point x="469" y="-196"/>
      <point x="482" y="-174"/>
      <point x="511" y="-159" type="curve" smooth="yes"/>
      <point x="615" y="-104" type="line"/>
      <point x="601" y="-144" type="line"/>
      <point x="419" y="182" type="line"/>
      <point x="376" y="261"/>
      <point x="332" y="293"/>
      <point x="269" y="293" type="curve" smooth="yes"/>
      <point x="201" y="293"/>
      <point x="158" y="247"/>
      <point x="158" y="190" type="curve" smooth="yes"/>
      <point x="158" y="131"/>
      <point x="206" y="85"/>
      <point x="286" y="83" type="curve" smooth="yes"/>
      <point x="343" y="82"/>
      <point x="405" y="106"/>
    </contour>
    <contour>
      <point x="-30" y="1136" type="line"/>
      <point x="-30" y="1283" type="line"/>
      <point x="1634" y="1283" type="line"/>
      <point x="1634" y="1136" type="line"/>
    </contour>
    <contour>
      <point x="1157" y="189" type="line"/>
      <point x="1318" y="247" type="line"/>
      <point x="1545" y="-204" type="line"/>
      <point x="1388" y="-271" type="line"/>
    </contour>
    <contour>
      <point x="1085" y="112" type="curve" smooth="yes"/>
      <point x="768" y="112"/>
      <point x="571" y="294"/>
      <point x="571" y="539" type="curve" smooth="yes"/>
      <point x="571" y="736"/>
      <point x="715" y="896"/>
      <point x="1020" y="896" type="curve" smooth="yes"/>
      <point x="1223" y="896" type="line"/>
      <point x="1170" y="846" type="line"/>
      <point x="1170" y="1177" type="line"/>
      <point x="1377" y="1177" type="line"/>
      <point x="1377" y="741" type="line"/>
      <point x="1078" y="741" type="line"/>
      <point x="852" y="741"/>
      <point x="765" y="639"/>
      <point x="765" y="513" type="curve" smooth="yes"/>
      <point x="765" y="382"/>
      <point x="874" y="270"/>
      <point x="1054" y="270" type="curve" smooth="yes"/>
      <point x="1130" y="270"/>
      <point x="1176" y="276"/>
      <point x="1273" y="306" type="curve"/>
      <point x="1139" y="224" type="line"/>
      <point x="1110" y="273"/>
      <point x="1098" y="312"/>
      <point x="1098" y="351" type="curve" smooth="yes"/>
      <point x="1098" y="396"/>
      <point x="1130" y="446"/>
      <point x="1229" y="446" type="curve" smooth="yes"/>
      <point x="1367" y="446"/>
      <point x="1477" y="381"/>
      <point x="1477" y="303" type="curve" smooth="yes"/>
      <point x="1477" y="211"/>
      <point x="1337" y="112"/>
    </contour>
    <contour>
      <point x="1052" y="-334" type="move" name="btm"/>
    </contour>
    <contour>
      <point x="1138" y="1283" type="move" name="top"/>
    </contour>
  </outline>
</glyph>
<glyph name="dadhadeva" format="1">
  <advance width="1446"/>
  <outline>
    <contour>
      <point x="536" y="92" type="line"/>
      <point x="482" y="60"/>
      <point x="424" y="42"/>
      <point x="320" y="42" type="curve" smooth="yes"/>
      <point x="136" y="42"/>
      <point x="8" y="160"/>
      <point x="8" y="327" type="curve" smooth="yes"/>
      <point x="8" y="422"/>
      <point x="49" y="514"/>
      <point x="127" y="592" type="curve"/>
      <point x="263" y="496" type="line"/>
      <point x="213" y="448"/>
      <point x="184" y="383"/>
      <point x="184" y="320" type="curve" smooth="yes"/>
      <point x="184" y="242"/>
      <point x="241" y="185"/>
      <point x="343" y="185" type="curve" smooth="yes"/>
      <point x="431" y="185"/>
      <point x="497" y="205"/>
      <point x="573" y="253" type="curve"/>
    </contour>
    <contour>
      <point x="756" y="187" type="line"/>
      <point x="632" y="132"/>
      <point x="596" y="48"/>
      <point x="596" y="-13" type="curve" smooth="yes"/>
      <point x="595" y="-88"/>
      <point x="644" y="-138"/>
      <point x="734" y="-138" type="curve" smooth="yes"/>
      <point x="878" y="-138"/>
      <point x="1007" y="-2"/>
      <point x="1023" y="209" type="curve"/>
      <point x="1146" y="-19" type="line"/>
      <point x="1064" y="-185"/>
      <point x="919" y="-293"/>
      <point x="739" y="-293" type="curve" smooth="yes"/>
      <point x="548" y="-293"/>
      <point x="430" y="-167"/>
      <point x="430" y="-15" type="curve" smooth="yes"/>
      <point x="430" y="87"/>
      <point x="468" y="206"/>
      <point x="634" y="301" type="curve"/>
    </contour>
    <contour>
      <point x="-30" y="1136" type="line"/>
      <point x="-30" y="1283" type="line"/>
      <point x="1481" y="1283" type="line"/>
      <point x="1481" y="1136" type="line"/>
    </contour>
    <contour>
      <point x="1003" y="189" type="line"/>
      <point x="1164" y="247" type="line"/>
      <point x="1391" y="-204" type="line"/>
      <point x="1234" y="-271" type="line"/>
    </contour>
    <contour>
      <point x="931" y="112" type="curve" smooth="yes"/>
      <point x="615" y="112"/>
      <point x="417" y="294"/>
      <point x="417" y="539" type="curve" smooth="yes"/>
      <point x="417" y="736"/>
      <point x="561" y="896"/>
      <point x="866" y="896" type="curve" smooth="yes"/>
      <point x="1069" y="896" type="line"/>
      <point x="1016" y="846" type="line"/>
      <point x="1016" y="1177" type="line"/>
      <point x="1223" y="1177" type="line"/>
      <point x="1223" y="741" type="line"/>
      <point x="925" y="741" type="line"/>
      <point x="699" y="741"/>
      <point x="611" y="639"/>
      <point x="611" y="513" type="curve" smooth="yes"/>
      <point x="611" y="382"/>
      <point x="720" y="270"/>
      <point x="901" y="270" type="curve" smooth="yes"/>
      <point x="976" y="270"/>
      <point x="1022" y="276"/>
      <point x="1120" y="306" type="curve"/>
      <point x="985" y="224" type="line"/>
      <point x="956" y="273"/>
      <point x="944" y="312"/>
      <point x="944" y="351" type="curve" smooth="yes"/>
      <point x="944" y="396"/>
      <point x="976" y="446"/>
      <point x="1075" y="446" type="curve" smooth="yes"/>
      <point x="1213" y="446"/>
      <point x="1323" y="381"/>
      <point x="1323" y="303" type="curve" smooth="yes"/>
      <point x="1323" y="211"/>
      <point x="1183" y="112"/>
    </contour>
    <contour>
      <point x="948" y="-334" type="move" name="btm"/>
    </contour>
    <contour>
      <point x="984" y="1283" type="move" name="top"/>
    </contour>
  </outline>
</glyph>
<glyph name="damadeva" format="1">
  <advance width="1574"/>
  <outline>
    <contour>
      <point x="1145" y="1169" type="line"/>
      <point x="1352" y="1169" type="line"/>
      <point x="1352" y="-25" type="line"/>
      <point x="1145" y="-25" type="line"/>
    </contour>
    <contour>
      <point x="1198" y="395" type="line"/>
      <point x="1198" y="221" type="line"/>
      <point x="823" y="221" type="line"/>
      <point x="862" y="255" type="line"/>
      <point x="862" y="116" type="line"/>
      <point x="862" y="60"/>
      <point x="840" y="24"/>
      <point x="793" y="24" type="curve" smooth="yes"/>
      <point x="756" y="24"/>
      <point x="708" y="53"/>
      <point x="662" y="100" type="curve" smooth="yes"/>
      <point x="595" y="167"/>
      <point x="547" y="252"/>
      <point x="547" y="304" type="curve" smooth="yes"/>
      <point x="547" y="363"/>
      <point x="589" y="395"/>
      <point x="650" y="395" type="curve" smooth="yes"/>
    </contour>
    <contour>
      <point x="1604" y="1136" type="line"/>
      <point x="-30" y="1136" type="line"/>
      <point x="-30" y="1283" type="line"/>
      <point x="1604" y="1283" type="line"/>
    </contour>
    <contour>
      <point x="606" y="1167" type="line"/>
      <point x="812" y="1167" type="line"/>
      <point x="812" y="805" type="line"/>
      <point x="443" y="805" type="line"/>
      <point x="332" y="805"/>
      <point x="295" y="765"/>
      <point x="295" y="708" type="curve" smooth="yes"/>
      <point x="295" y="648"/>
      <point x="346" y="618"/>
      <point x="429" y="618" type="curve" smooth="yes"/>
      <point x="540" y="618" type="line"/>
      <point x="765" y="618"/>
      <point x="858" y="501"/>
      <point x="859" y="361" type="curve" smooth="yes"/>
      <point x="860" y="294" type="line"/>
      <point x="668" y="290" type="line"/>
      <point x="668" y="349" type="line"/>
      <point x="668" y="419"/>
      <point x="624" y="461"/>
      <point x="528" y="461" type="curve" smooth="yes"/>
      <point x="439" y="461" type="line"/>
      <point x="224" y="461"/>
      <point x="92" y="577"/>
      <point x="92" y="729" type="curve" smooth="yes"/>
      <point x="92" y="857"/>
      <point x="175" y="957"/>
      <point x="387" y="957" type="curve" smooth="yes"/>
      <point x="658" y="957" type="line"/>
      <point x="606" y="906" type="line"/>
    </contour>
    <contour>
      <point x="1145" y="-25" type="move" name="btm"/>
    </contour>
    <contour>
      <point x="1145" y="1283" type="move" name="top"/>
    </contour>
  </outline>
</glyph>
<glyph name="dayadeva" format="1">
  <advance width="1479"/>
  <outline>
    <contour>
      <point x="503" y="1180" type="line"/>
      <point x="710" y="1180" type="line"/>
      <point x="710" y="877" type="line"/>
      <point x="503" y="877" type="line"/>
    </contour>
    <contour>
      <point x="441" y="412" type="line"/>
      <point x="217" y="457"/>
      <point x="85" y="567"/>
      <point x="85" y="723" type="curve" smooth="yes"/>
      <point x="85" y="849"/>
      <point x="180" y="949"/>
      <point x="397" y="949" type="curve" smooth="yes"/>
      <point x="430" y="949"/>
      <point x="684" y="949"/>
      <point x="710" y="949" type="curve"/>
      <point x="710" y="806" type="line"/>
      <point x="692" y="806"/>
      <point x="475" y="806"/>
      <point x="462" y="806" type="curve"/>
      <point x="332" y="806"/>
      <point x="285" y="758"/>
      <point x="285" y="695" type="curve" smooth="yes"/>
      <point x="285" y="620"/>
      <point x="375" y="559"/>
      <point x="558" y="548" type="curve"/>
    </contour>
    <contour>
      <point x="1048" y="1168" type="line"/>
      <point x="1255" y="1168" type="line"/>
      <point x="1255" y="-25" type="line"/>
      <point x="1048" y="-25" type="line"/>
    </contour>
    <contour>
      <point x="1509" y="1136" type="line"/>
      <point x="-30" y="1136" type="line"/>
      <point x="-30" y="1283" type="line"/>
      <point x="1509" y="1283" type="line"/>
    </contour>
    <contour>
      <point x="828" y="480" type="line"/>
      <point x="818" y="480" type="line"/>
      <point x="612" y="480"/>
      <point x="538" y="410"/>
      <point x="538" y="336" type="curve" smooth="yes"/>
      <point x="538" y="267"/>
      <point x="602" y="212"/>
      <point x="714" y="212" type="curve" smooth="yes"/>
      <point x="861" y="212"/>
      <point x="1006" y="281"/>
      <point x="1093" y="427" type="curve"/>
      <point x="1093" y="160" type="line"/>
      <point x="1000" y="96"/>
      <point x="878" y="52"/>
      <point x="725" y="52" type="curve" smooth="yes"/>
      <point x="479" y="52"/>
      <point x="340" y="192"/>
      <point x="340" y="361" type="curve" smooth="yes"/>
      <point x="340" y="504"/>
      <point x="462" y="629"/>
      <point x="770" y="629" type="curve" smooth="yes"/>
      <point x="780" y="629" type="line"/>
    </contour>
    <contour>
      <point x="1048" y="-25" type="move" name="btm"/>
    </contour>
    <contour>
      <point x="1048" y="1283" type="move" name="top"/>
    </contour>
  </outline>
</glyph>
<glyph name="ddhaddhadeva" format="1">
  <advance width="1178"/>
  <outline>
    <contour>
      <point x="671" y="263" type="line"/>
      <point x="875" y="263" type="line"/>
      <point x="875" y="-45" type="line"/>
      <point x="596" y="-45" type="line"/>
      <point x="359" y="-45"/>
      <point x="290" y="-131"/>
      <point x="290" y="-239" type="curve" smooth="yes"/>
      <point x="290" y="-361"/>
      <point x="430" y="-457"/>
      <point x="659" y="-457" type="curve" smooth="yes"/>
      <point x="843" y="-457"/>
      <point x="905" y="-407"/>
      <point x="905" y="-354" type="curve" smooth="yes"/>
      <point x="905" y="-309"/>
      <point x="866" y="-273"/>
      <point x="784" y="-273" type="curve" smooth="yes"/>
      <point x="694" y="-273"/>
      <point x="634" y="-330"/>
      <point x="634" y="-393" type="curve" smooth="yes"/>
      <point x="634" y="-443"/>
      <point x="651" y="-482"/>
      <point x="683" y="-519" type="curve"/>
      <point x="525" y="-533" type="line"/>
      <point x="493" y="-480"/>
      <point x="477" y="-433"/>
      <point x="477" y="-366" type="curve" smooth="yes"/>
      <point x="477" y="-266"/>
      <point x="572" y="-152"/>
      <point x="776" y="-152" type="curve" smooth="yes"/>
      <point x="974" y="-152"/>
      <point x="1056" y="-250"/>
      <point x="1056" y="-358" type="curve" smooth="yes"/>
      <point x="1056" y="-475"/>
      <point x="924" y="-583"/>
      <point x="669" y="-583" type="curve" smooth="yes"/>
      <point x="302" y="-583"/>
      <point x="104" y="-409"/>
      <point x="104" y="-208" type="curve" smooth="yes"/>
      <point x="104" y="-49"/>
      <point x="224" y="101"/>
      <point x="540" y="101" type="curve" smooth="yes"/>
      <point x="712" y="101" type="line"/>
      <point x="671" y="61" type="line"/>
    </contour>
    <contour>
      <point x="1208" y="1136" type="line"/>
      <point x="-30" y="1136" type="line"/>
      <point x="-30" y="1283" type="line"/>
      <point x="1208" y="1283" type="line"/>
    </contour>
    <contour>
      <point x="728" y="1166" type="line"/>
      <point x="934" y="1166" type="line"/>
      <point x="934" y="815" type="line"/>
      <point x="629" y="815" type="line"/>
      <point x="384" y="815"/>
      <point x="295" y="719"/>
      <point x="295" y="592" type="curve" smooth="yes"/>
      <point x="295" y="454"/>
      <point x="449" y="347"/>
      <point x="678" y="347" type="curve" smooth="yes"/>
      <point x="860" y="347"/>
      <point x="939" y="401"/>
      <point x="939" y="462" type="curve" smooth="yes"/>
      <point x="939" y="514"/>
      <point x="892" y="548"/>
      <point x="811" y="548" type="curve" smooth="yes"/>
      <point x="721" y="548"/>
      <point x="663" y="498"/>
      <point x="663" y="424" type="curve" smooth="yes"/>
      <point x="663" y="375"/>
      <point x="683" y="335"/>
      <point x="710" y="297" type="curve"/>
      <point x="554" y="280" type="line"/>
      <point x="515" y="333"/>
      <point x="499" y="386"/>
      <point x="499" y="450" type="curve" smooth="yes"/>
      <point x="499" y="576"/>
      <point x="606" y="682"/>
      <point x="804" y="682" type="curve" smooth="yes"/>
      <point x="1000" y="682"/>
      <point x="1107" y="581"/>
      <point x="1107" y="454" type="curve" smooth="yes"/>
      <point x="1107" y="321"/>
      <point x="952" y="216"/>
      <point x="690" y="216" type="curve" smooth="yes"/>
      <point x="305" y="216"/>
      <point x="99" y="407"/>
      <point x="99" y="631" type="curve" smooth="yes"/>
      <point x="99" y="810"/>
      <point x="244" y="967"/>
      <point x="559" y="967" type="curve" smooth="yes"/>
      <point x="769" y="967" type="line"/>
      <point x="728" y="933" type="line"/>
    </contour>
    <contour>
      <point x="515" y="-576" type="move" name="btm"/>
    </contour>
    <contour>
      <point x="709" y="1283" type="move" name="top"/>
    </contour>
  </outline>
</glyph>
<glyph name="eshortvowelsignrephanusdeva" format="1">
  <outline>
    <contour>
      <point x="-346" y="1244" type="line"/>
      <point x="-401" y="1329"/>
      <point x="-425" y="1432"/>
      <point x="-425" y="1530" type="curve" smooth="yes"/>
      <point x="-425" y="1666"/>
      <point x="-314" y="1791"/>
      <point x="-115" y="1791" type="curve" smooth="yes"/>
      <point x="-52" y="1791"/>
      <point x="-6" y="1784"/>
      <point x="40" y="1774" type="curve"/>
      <point x="30" y="1650" type="line"/>
      <point x="-2" y="1656"/>
      <point x="-33" y="1660"/>
      <point x="-74" y="1660" type="curve" smooth="yes"/>
      <point x="-184" y="1660"/>
      <point x="-244" y="1591"/>
      <point x="-244" y="1488" type="curve" smooth="yes"/>
      <point x="-244" y="1431"/>
      <point x="-244" y="1331"/>
      <point x="-244" y="1244" type="curve"/>
    </contour>
    <contour>
      <point x="-57" y="1563" type="curve" smooth="yes"/>
      <point x="8" y="1563"/>
      <point x="40" y="1520"/>
      <point x="40" y="1469" type="curve" smooth="yes"/>
      <point x="40" y="1420"/>
      <point x="8" y="1375"/>
      <point x="-57" y="1375" type="curve" smooth="yes"/>
      <point x="-119" y="1375"/>
      <point x="-153" y="1419"/>
      <point x="-153" y="1469" type="curve" smooth="yes"/>
      <point x="-153" y="1520"/>
      <point x="-120" y="1563"/>
    </contour>
    <component base="eshortvowelsigndeva"/>
    <contour>
      <point x="-434" y="1283" type="move" name="_top"/>
    </contour>
  </outline>
</glyph>
<glyph name="fivedevaNEP" format="1">
  <advance width="993"/>
  <outline>
    <contour>
      <point x="270" y="150" type="line"/>
      <point x="422" y="199" type="line"/>
      <point x="580" y="-101" type="line"/>
      <point x="429" y="-161" type="line"/>
    </contour>
    <contour>
      <point x="331" y="270" type="curve" smooth="yes"/>
      <point x="496" y="271"/>
      <point x="627" y="388"/>
      <point x="654" y="640" type="curve" smooth="yes"/>
      <point x="719" y="1245" type="line"/>
      <point x="909" y="1245" type="line"/>
      <point x="837" y="634" type="line"/>
      <point x="798" y="304"/>
      <point x="617" y="105"/>
      <point x="282" y="105" type="curve" smooth="yes"/>
      <point x="148" y="105"/>
      <point x="91" y="150"/>
      <point x="91" y="209" type="curve" smooth="yes"/>
      <point x="91" y="286"/>
      <point x="180" y="389"/>
      <point x="268" y="389" type="curve" smooth="yes"/>
      <point x="328" y="389"/>
      <point x="363" y="349"/>
      <point x="417" y="221" type="curve"/>
      <point x="196" y="258" type="line"/>
      <point x="233" y="252"/>
      <point x="306" y="270"/>
    </contour>
    <contour>
      <point x="748" y="785" type="curve"/>
      <point x="776" y="600" type="line"/>
      <point x="700" y="562"/>
      <point x="603" y="532"/>
      <point x="498" y="532" type="curve" smooth="yes"/>
      <point x="265" y="532"/>
      <point x="121" y="659"/>
      <point x="121" y="883" type="curve" smooth="yes"/>
      <point x="121" y="1245" type="line"/>
      <point x="307" y="1245" type="line"/>
      <point x="307" y="869" type="line"/>
      <point x="307" y="756"/>
      <point x="376" y="700"/>
      <point x="486" y="700" type="curve" smooth="yes"/>
      <point x="588" y="700"/>
      <point x="667" y="729"/>
    </contour>
  </outline>
</glyph>
<glyph name="haprehalfdeva" format="1">
  <advance width="881"/>
  <outline>
    <contour>
      <point x="528" y="1162" type="line"/>
      <point x="735" y="1162" type="line"/>
      <point x="735" y="794" type="line"/>
      <point x="456" y="794" type="line"/>
      <point x="332" y="794"/>
      <point x="291" y="745"/>
      <point x="291" y="679" type="curve" smooth="yes"/>
      <point x="291" y="613"/>
      <point x="350" y="561"/>
      <point x="448" y="532" type="curve"/>
      <point x="318" y="410" type="line"/>
      <point x="169" y="490"/>
      <point x="93" y="588"/>
      <point x="93" y="714" type="curve" smooth="yes"/>
      <point x="93" y="842"/>
      <point x="185" y="943"/>
      <point x="397" y="943" type="curve" smooth="yes"/>
      <point x="567" y="943" type="line"/>
      <point x="528" y="899" type="line"/>
    </contour>
    <contour>
      <point x="686" y="598" type="curve" smooth="yes"/>
      <point x="1132" y="598" type="line"/>
      <point x="1147" y="437" type="line"/>
      <point x="688" y="437" type="line"/>
      <point x="459" y="437"/>
      <point x="383" y="321"/>
      <point x="383" y="204" type="curve" smooth="yes"/>
      <point x="383" y="43"/>
      <point x="518" y="-78"/>
      <point x="950" y="-129" type="curve"/>
      <point x="896" y="-281" type="line"/>
      <point x="407" y="-228"/>
      <point x="187" y="-40"/>
      <point x="187" y="229" type="curve" smooth="yes"/>
      <point x="187" y="418"/>
      <point x="324" y="598"/>
    </contour>
    <contour>
      <point x="911" y="1136" type="line"/>
      <point x="-30" y="1136" type="line"/>
      <point x="-30" y="1283" type="line"/>
      <point x="911" y="1283" type="line"/>
    </contour>
  </outline>
</glyph>
<glyph name="haradeva" format="1">
  <advance width="1212"/>
  <outline>
    <contour>
      <point x="902" y="447" type="line"/>
      <point x="676" y="81" type="line"/>
      <point x="532" y="150" type="line"/>
      <point x="751" y="515" type="line"/>
    </contour>
    <contour>
      <point x="796" y="1162" type="line"/>
      <point x="1003" y="1162" type="line"/>
      <point x="1003" y="794" type="line"/>
      <point x="461" y="794" type="line"/>
      <point x="344" y="794"/>
      <point x="299" y="746"/>
      <point x="299" y="680" type="curve" smooth="yes"/>
      <point x="299" y="615"/>
      <point x="353" y="564"/>
      <point x="452" y="533" type="curve"/>
      <point x="324" y="411" type="line"/>
      <point x="174" y="491"/>
      <point x="101" y="592"/>
      <point x="101" y="714" type="curve" smooth="yes"/>
      <point x="101" y="842"/>
      <point x="193" y="943"/>
      <point x="403" y="943" type="curve" smooth="yes"/>
      <point x="835" y="943" type="line"/>
      <point x="796" y="899" type="line"/>
    </contour>
    <contour>
      <point x="654" y="604" type="curve" smooth="yes"/>
      <point x="943" y="604"/>
      <point x="1099" y="462"/>
      <point x="1099" y="286" type="curve" smooth="yes"/>
      <point x="1099" y="207"/>
      <point x="1080" y="146"/>
      <point x="1045" y="80" type="curve"/>
      <point x="876" y="117" type="line"/>
      <point x="907" y="164"/>
      <point x="923" y="220"/>
      <point x="923" y="277" type="curve" smooth="yes"/>
      <point x="923" y="367"/>
      <point x="850" y="449"/>
      <point x="674" y="450" type="curve" smooth="yes"/>
      <point x="489" y="450"/>
      <point x="388" y="329"/>
      <point x="388" y="204" type="curve" smooth="yes"/>
      <point x="388" y="43"/>
      <point x="522" y="-78"/>
      <point x="955" y="-129" type="curve"/>
      <point x="899" y="-281" type="line"/>
      <point x="418" y="-228"/>
      <point x="191" y="-45"/>
      <point x="191" y="227" type="curve" smooth="yes"/>
      <point x="191" y="430"/>
      <point x="357" y="604"/>
    </contour>
    <contour>
      <point x="1242" y="1136" type="line"/>
      <point x="-30" y="1136" type="line"/>
      <point x="-30" y="1283" type="line"/>
      <point x="1242" y="1283" type="line"/>
    </contour>
    <contour>
      <point x="792" y="1283" type="move" name="top"/>
    </contour>
  </outline>
</glyph>
<glyph name="janyaradeva" format="1">
  <advance width="1506"/>
  <outline>
    <contour>
      <point x="1220" y="566" type="line"/>
      <point x="830" y="15" type="line"/>
      <point x="686" y="119" type="line"/>
      <point x="1085" y="679" type="line"/>
    </contour>
    <contour>
      <point x="439" y="131" type="curve"/>
      <point x="453" y="111" type="line"/>
      <point x="697" y="-177" type="line"/>
      <point x="558" y="-257" type="line"/>
      <point x="271" y="82" type="line"/>
      <point x="358" y="26" type="line"/>
      <point x="150" y="26"/>
      <point x="62" y="88"/>
      <point x="62" y="164" type="curve" smooth="yes"/>
      <point x="62" y="234"/>
      <point x="121" y="298"/>
      <point x="205" y="298" type="curve" smooth="yes"/>
      <point x="276" y="298"/>
      <point x="341" y="252"/>
    </contour>
    <contour>
      <point x="-30" y="1136" type="line"/>
      <point x="-30" y="1283" type="line"/>
      <point x="1536" y="1283" type="line"/>
      <point x="1536" y="1136" type="line"/>
    </contour>
    <contour>
      <point x="456" y="804" type="line"/>
      <point x="353" y="804"/>
      <point x="318" y="769"/>
      <point x="318" y="717" type="curve" smooth="yes"/>
      <point x="318" y="664"/>
      <point x="357" y="634"/>
      <point x="496" y="591" type="curve" smooth="yes"/>
      <point x="680" y="536"/>
      <point x="767" y="447"/>
      <point x="767" y="309" type="curve" smooth="yes"/>
      <point x="767" y="158"/>
      <point x="625" y="28"/>
      <point x="392" y="28" type="curve"/>
      <point x="362" y="172" type="line"/>
      <point x="510" y="172"/>
      <point x="582" y="239"/>
      <point x="582" y="309" type="curve" smooth="yes"/>
      <point x="582" y="374"/>
      <point x="541" y="418"/>
      <point x="375" y="473" type="curve" smooth="yes"/>
      <point x="203" y="531"/>
      <point x="126" y="619"/>
      <point x="126" y="732" type="curve" smooth="yes"/>
      <point x="126" y="857"/>
      <point x="216" y="951"/>
      <point x="411" y="951" type="curve" smooth="yes"/>
      <point x="1095" y="951" type="line"/>
      <point x="1095" y="804" type="line"/>
    </contour>
    <contour>
      <point x="1062" y="1176" type="line"/>
      <point x="1272" y="1176" type="line"/>
      <point x="1272" y="0" type="line"/>
      <point x="1062" y="0" type="line"/>
    </contour>
    <contour>
      <point x="1062" y="1283" type="move" name="top"/>
    </contour>
  </outline>
</glyph>
<glyph name="janyaraprehalfdeva" format="1">
  <advance width="942"/>
  <outline>
    <contour>
      <point x="1221" y="582" type="line"/>
      <point x="817" y="15" type="line"/>
      <point x="673" y="119" type="line"/>
      <point x="1085" y="695" type="line"/>
    </contour>
    <contour>
      <point x="431" y="131" type="curve"/>
      <point x="449" y="105" type="line"/>
      <point x="688" y="-177" type="line"/>
      <point x="550" y="-257" type="line"/>
      <point x="262" y="82" type="line"/>
      <point x="350" y="26" type="line"/>
      <point x="142" y="26"/>
      <point x="53" y="88"/>
      <point x="53" y="164" type="curve" smooth="yes"/>
      <point x="53" y="234"/>
      <point x="113" y="298"/>
      <point x="197" y="298" type="curve" smooth="yes"/>
      <point x="267" y="298"/>
      <point x="333" y="252"/>
    </contour>
    <contour>
      <point x="-30" y="1136" type="line"/>
      <point x="-30" y="1283" type="line"/>
      <point x="972" y="1283" type="line"/>
      <point x="972" y="1136" type="line"/>
    </contour>
    <contour>
      <point x="444" y="804" type="line"/>
      <point x="340" y="804"/>
      <point x="311" y="769"/>
      <point x="311" y="717" type="curve" smooth="yes"/>
      <point x="311" y="664"/>
      <point x="349" y="634"/>
      <point x="487" y="591" type="curve" smooth="yes"/>
      <point x="663" y="536"/>
      <point x="750" y="445"/>
      <point x="750" y="309" type="curve" smooth="yes"/>
      <point x="750" y="158"/>
      <point x="604" y="28"/>
      <point x="384" y="28" type="curve"/>
      <point x="354" y="172" type="line"/>
      <point x="502" y="172"/>
      <point x="566" y="239"/>
      <point x="566" y="309" type="curve" smooth="yes"/>
      <point x="566" y="374"/>
      <point x="517" y="421"/>
      <point x="367" y="473" type="curve" smooth="yes"/>
      <point x="195" y="533"/>
      <point x="112" y="614"/>
      <point x="112" y="736" type="curve" smooth="yes"/>
      <point x="112" y="857"/>
      <point x="210" y="951"/>
      <point x="406" y="951" type="curve" smooth="yes"/>
      <point x="1118" y="951" type="line"/>
      <point x="1118" y="804" type="line"/>
    </contour>
  </outline>
</glyph>
<glyph name="jasadeva" format="1">
  <advance width="2544"/>
  <outline>
    <contour>
      <point x="686" y="684" type="line"/>
      <point x="702" y="744" type="line"/>
      <point x="847" y="669"/>
      <point x="933" y="553"/>
      <point x="933" y="401" type="curve" smooth="yes"/>
      <point x="933" y="237"/>
      <point x="810" y="100"/>
      <point x="612" y="100" type="curve" smooth="yes"/>
      <point x="405" y="100"/>
      <point x="213" y="224"/>
      <point x="49" y="490" type="curve"/>
      <point x="151" y="632" type="line"/>
      <point x="322" y="365"/>
      <point x="459" y="281"/>
      <point x="581" y="281" type="curve" smooth="yes"/>
      <point x="683" y="281"/>
      <point x="749" y="344"/>
      <point x="749" y="438" type="curve" smooth="yes"/>
      <point x="749" y="542"/>
      <point x="648" y="656"/>
      <point x="460" y="706" type="curve"/>
      <point x="460" y="857" type="line"/>
      <point x="1188" y="857" type="line"/>
      <point x="1165" y="684" type="line"/>
    </contour>
    <contour>
      <point x="-30" y="1137" type="line"/>
      <point x="-30" y="1285" type="line"/>
      <point x="1125" y="1285" type="line"/>
      <point x="1125" y="1137" type="line"/>
    </contour>
    <component base="sadeva" xOffset="1054"/>
  </outline>
</glyph>
<glyph name="jayadeva" format="1">
  <advance width="2323"/>
  <outline>
    <contour>
      <point x="686" y="621" type="line"/>
      <point x="702" y="681" type="line"/>
      <point x="847" y="607"/>
      <point x="933" y="497"/>
      <point x="933" y="344" type="curve" smooth="yes"/>
      <point x="933" y="181"/>
      <point x="810" y="44"/>
      <point x="612" y="44" type="curve" smooth="yes"/>
      <point x="405" y="44"/>
      <point x="213" y="168"/>
      <point x="49" y="433" type="curve"/>
      <point x="151" y="575" type="line"/>
      <point x="322" y="308"/>
      <point x="459" y="224"/>
      <point x="581" y="224" type="curve" smooth="yes"/>
      <point x="683" y="224"/>
      <point x="749" y="288"/>
      <point x="749" y="381" type="curve" smooth="yes"/>
      <point x="749" y="486"/>
      <point x="648" y="593"/>
      <point x="460" y="643" type="curve"/>
      <point x="460" y="794" type="line"/>
      <point x="1322" y="794" type="line"/>
      <point x="1296" y="621" type="line"/>
    </contour>
    <contour>
      <point x="-30" y="1136" type="line"/>
      <point x="-30" y="1283" type="line"/>
      <point x="1125" y="1283" type="line"/>
      <point x="1125" y="1136" type="line"/>
    </contour>
    <component base="yadeva" xOffset="1015"/>
  </outline>
</glyph>
<glyph name="jharadevaNEP" format="1">
  <advance width="1888"/>
  <outline>
    <contour>
      <point x="1119" y="385" type="line"/>
      <point x="494" y="-84" type="line"/>
      <point x="385" y="52" type="line"/>
      <point x="1017" y="528" type="line"/>
    </contour>
    <component base="jhadevaNEP"/>
    <contour>
      <point x="983" y="0" type="move" name="btm"/>
    </contour>
    <contour>
      <point x="983" y="1283" type="move" name="top"/>
    </contour>
  </outline>
</glyph>
<glyph name="jharaprehalfdeva" format="1">
  <advance width="1101"/>
  <outline>
    <contour>
      <point x="510" y="148" type="curve"/>
      <point x="530" y="119" type="line"/>
      <point x="788" y="-159" type="line"/>
      <point x="656" y="-250" type="line"/>
      <point x="338" y="98" type="line"/>
      <point x="433" y="32" type="line"/>
      <point x="208" y="32"/>
      <point x="120" y="110"/>
      <point x="120" y="184" type="curve" smooth="yes"/>
      <point x="120" y="248"/>
      <point x="174" y="305"/>
      <point x="252" y="305" type="curve" smooth="yes"/>
      <point x="325" y="305"/>
      <point x="403" y="265"/>
    </contour>
    <contour>
      <point x="1425" y="423" type="line"/>
      <point x="948" y="-121" type="line"/>
      <point x="812" y="-5" type="line"/>
      <point x="1319" y="556" type="line"/>
    </contour>
    <contour>
      <point x="1396" y="463" type="line"/>
      <point x="1297" y="395"/>
      <point x="1173" y="350"/>
      <point x="1034" y="350" type="curve" smooth="yes"/>
      <point x="950" y="350"/>
      <point x="867" y="363"/>
      <point x="806" y="377" type="curve"/>
      <point x="803" y="538" type="line"/>
      <point x="865" y="522"/>
      <point x="923" y="514"/>
      <point x="995" y="514" type="curve" smooth="yes"/>
      <point x="1106" y="514"/>
      <point x="1228" y="554"/>
      <point x="1321" y="635" type="curve"/>
    </contour>
    <contour>
      <point x="643" y="1167" type="line"/>
      <point x="849" y="1167" type="line"/>
      <point x="849" y="801" type="line"/>
      <point x="439" y="801" type="line"/>
      <point x="325" y="801"/>
      <point x="284" y="752"/>
      <point x="284" y="692" type="curve" smooth="yes"/>
      <point x="284" y="638"/>
      <point x="322" y="591"/>
      <point x="410" y="556" type="curve"/>
      <point x="324" y="560" type="line"/>
      <point x="416" y="602"/>
      <point x="511" y="630"/>
      <point x="621" y="630" type="curve" smooth="yes"/>
      <point x="812" y="630"/>
      <point x="935" y="522"/>
      <point x="935" y="363" type="curve" smooth="yes"/>
      <point x="935" y="186"/>
      <point x="755" y="38"/>
      <point x="458" y="38" type="curve"/>
      <point x="422" y="190" type="line"/>
      <point x="639" y="190"/>
      <point x="745" y="272"/>
      <point x="745" y="358" type="curve" smooth="yes"/>
      <point x="745" y="426"/>
      <point x="694" y="471"/>
      <point x="593" y="471" type="curve" smooth="yes"/>
      <point x="525" y="471"/>
      <point x="445" y="441"/>
      <point x="375" y="404" type="curve"/>
      <point x="368" y="404" type="line"/>
      <point x="175" y="495"/>
      <point x="100" y="606"/>
      <point x="100" y="723" type="curve" smooth="yes"/>
      <point x="100" y="843"/>
      <point x="192" y="949"/>
      <point x="404" y="949" type="curve" smooth="yes"/>
      <point x="695" y="949" type="line"/>
      <point x="643" y="897" type="line"/>
    </contour>
    <contour>
      <point x="1131" y="1136" type="line"/>
      <point x="-30" y="1136" type="line"/>
      <point x="-30" y="1283" type="line"/>
      <point x="1131" y="1283" type="line"/>
    </contour>
  </outline>
</glyph>
<glyph name="jharaprehalfdevaNEP" format="1">
  <advance width="1494"/>
  <outline>
    <contour>
      <point x="1149" y="468" type="curve"/>
      <point x="1133" y="722" type="line"/>
      <point x="1186" y="764"/>
      <point x="1284" y="803"/>
      <point x="1379" y="803" type="curve" smooth="yes"/>
      <point x="1513" y="803"/>
      <point x="1618" y="765"/>
      <point x="1733" y="668" type="curve"/>
      <point x="1689" y="520" type="line"/>
      <point x="1589" y="603"/>
      <point x="1519" y="632"/>
      <point x="1412" y="632" type="curve" smooth="yes"/>
      <point x="1322" y="632"/>
      <point x="1219" y="576"/>
    </contour>
    <contour>
      <point x="1119" y="1136" type="line"/>
      <point x="1119" y="1283" type="line"/>
      <point x="1524" y="1283" type="line"/>
      <point x="1524" y="1136" type="line"/>
    </contour>
    <component base="bharadeva"/>
  </outline>
</glyph>
<glyph name="kassaraprehalfdeva" format="1">
  <advance width="1069"/>
  <outline>
    <contour>
      <point x="493" y="149" type="line"/>
      <point x="643" y="205" type="line"/>
      <point x="783" y="-100" type="line"/>
      <point x="625" y="-154" type="line"/>
    </contour>
    <contour>
      <point x="265" y="1050" type="curve" smooth="yes"/>
      <point x="265" y="1196"/>
      <point x="377" y="1314"/>
      <point x="569" y="1314" type="curve" smooth="yes"/>
      <point x="785" y="1314"/>
      <point x="898" y="1175"/>
      <point x="898" y="1025" type="curve" smooth="yes"/>
      <point x="898" y="875"/>
      <point x="786" y="746"/>
      <point x="564" y="636" type="curve" smooth="yes"/>
      <point x="330" y="521"/>
      <point x="273" y="451"/>
      <point x="273" y="361" type="curve" smooth="yes"/>
      <point x="273" y="274"/>
      <point x="332" y="213"/>
      <point x="431" y="213" type="curve" smooth="yes"/>
      <point x="481" y="213"/>
      <point x="513" y="223"/>
      <point x="583" y="253" type="curve"/>
      <point x="480" y="177" type="line"/>
      <point x="456" y="221"/>
      <point x="448" y="247"/>
      <point x="448" y="285" type="curve" smooth="yes"/>
      <point x="448" y="326"/>
      <point x="492" y="367"/>
      <point x="568" y="367" type="curve" smooth="yes"/>
      <point x="684" y="367"/>
      <point x="780" y="312"/>
      <point x="780" y="241" type="curve" smooth="yes"/>
      <point x="780" y="163"/>
      <point x="659" y="62"/>
      <point x="444" y="62" type="curve" smooth="yes"/>
      <point x="240" y="62"/>
      <point x="84" y="188"/>
      <point x="84" y="369" type="curve" smooth="yes"/>
      <point x="84" y="521"/>
      <point x="186" y="636"/>
      <point x="433" y="753" type="curve" smooth="yes"/>
      <point x="651" y="859"/>
      <point x="724" y="940"/>
      <point x="724" y="1027" type="curve" smooth="yes"/>
      <point x="724" y="1097"/>
      <point x="667" y="1151"/>
      <point x="589" y="1151" type="curve" smooth="yes"/>
      <point x="501" y="1151"/>
      <point x="450" y="1100"/>
      <point x="450" y="1019" type="curve" smooth="yes"/>
      <point x="450" y="883"/>
      <point x="673" y="684"/>
      <point x="1252" y="683" type="curve"/>
      <point x="1266" y="522" type="line"/>
      <point x="578" y="524"/>
      <point x="265" y="787"/>
    </contour>
    <contour>
      <point x="1264" y="522" type="line"/>
      <point x="933" y="105" type="line"/>
      <point x="791" y="206" type="line"/>
      <point x="1122" y="611" type="line"/>
    </contour>
  </outline>
</glyph>
<glyph name="labhadeva" format="1">
  <advance width="2363"/>
  <outline>
    <contour>
      <point x="-30" y="1136" type="line"/>
      <point x="-30" y="1283" type="line"/>
      <point x="1097" y="1283" type="line"/>
      <point x="1097" y="1136" type="line"/>
    </contour>
    <contour>
      <point x="898" y="623" type="curve"/>
      <point x="767" y="520" type="line"/>
      <point x="685" y="632"/>
      <point x="601" y="689"/>
      <point x="496" y="689" type="curve" smooth="yes"/>
      <point x="366" y="689"/>
      <point x="293" y="602"/>
      <point x="293" y="491" type="curve" smooth="yes"/>
      <point x="293" y="377"/>
      <point x="366" y="258"/>
      <point x="527" y="105" type="curve"/>
      <point x="382" y="14" type="line"/>
      <point x="215" y="173"/>
      <point x="102" y="361"/>
      <point x="102" y="531" type="curve" smooth="yes"/>
      <point x="102" y="717"/>
      <point x="233" y="869"/>
      <point x="458" y="869" type="curve" smooth="yes"/>
      <point x="642" y="869"/>
      <point x="789" y="772"/>
    </contour>
    <contour>
      <point x="752" y="309" type="curve"/>
      <point x="587" y="390" type="line"/>
      <point x="705" y="662"/>
      <point x="857" y="807"/>
      <point x="1045" y="807" type="curve" smooth="yes"/>
      <point x="1181" y="807"/>
      <point x="1287" y="750"/>
      <point x="1386" y="644" type="curve"/>
      <point x="1258" y="528" type="line"/>
      <point x="1200" y="596"/>
      <point x="1148" y="624"/>
      <point x="1066" y="624" type="curve" smooth="yes"/>
      <point x="965" y="624"/>
      <point x="854" y="538"/>
    </contour>
    <component base="bhadeva" xOffset="947"/>
  </outline>
</glyph>
<glyph name="nnaprehalfdeva" format="1">
  <advance width="1011"/>
  <outline>
    <contour>
      <point x="685" y="1167" type="line"/>
      <point x="892" y="1167" type="line"/>
      <point x="892" y="742" type="line"/>
      <point x="892" y="511"/>
      <point x="776" y="337"/>
      <point x="524" y="337" type="curve" smooth="yes"/>
      <point x="273" y="337"/>
      <point x="137" y="510"/>
      <point x="137" y="739" type="curve" smooth="yes"/>
      <point x="137" y="1167" type="line"/>
      <point x="344" y="1167" type="line"/>
      <point x="344" y="689" type="line"/>
      <point x="344" y="564"/>
      <point x="411" y="499"/>
      <point x="511" y="499" type="curve" smooth="yes"/>
      <point x="620" y="499"/>
      <point x="685" y="569"/>
      <point x="685" y="720" type="curve" smooth="yes"/>
    </contour>
    <contour>
      <point x="-30" y="1136" type="line"/>
      <point x="-30" y="1283" type="line"/>
      <point x="1041" y="1283" type="line"/>
      <point x="1041" y="1136" type="line"/>
    </contour>
  </outline>
</glyph>
<glyph name="rha2deva" format="1">
  <advance width="1194"/>
  <outline>
    <contour>
      <point x="1224" y="1136" type="line"/>
      <point x="-30" y="1136" type="line"/>
      <point x="-30" y="1283" type="line"/>
      <point x="1224" y="1283" type="line"/>
    </contour>
    <contour>
      <point x="725" y="1166" type="line"/>
      <point x="936" y="1166" type="line"/>
      <point x="936" y="742" type="line"/>
      <point x="649" y="742" type="line"/>
      <point x="404" y="742"/>
      <point x="299" y="637"/>
      <point x="299" y="469" type="curve" smooth="yes"/>
      <point x="299" y="311"/>
      <point x="462" y="177"/>
      <point x="692" y="177" type="curve" smooth="yes"/>
      <point x="874" y="177"/>
      <point x="945" y="245"/>
      <point x="945" y="322" type="curve" smooth="yes"/>
      <point x="945" y="377"/>
      <point x="899" y="423"/>
      <point x="819" y="423" type="curve" smooth="yes"/>
      <point x="726" y="423"/>
      <point x="673" y="360"/>
      <point x="673" y="276" type="curve" smooth="yes"/>
      <point x="673" y="223"/>
      <point x="687" y="179"/>
      <point x="718" y="130" type="curve"/>
      <point x="561" y="114" type="line"/>
      <point x="523" y="172"/>
      <point x="507" y="232"/>
      <point x="507" y="299" type="curve" smooth="yes"/>
      <point x="507" y="438"/>
      <point x="613" y="554"/>
      <point x="811" y="554" type="curve" smooth="yes"/>
      <point x="991" y="554"/>
      <point x="1104" y="443"/>
      <point x="1104" y="311" type="curve" smooth="yes"/>
      <point x="1104" y="159"/>
      <point x="967" y="46"/>
      <point x="706" y="46" type="curve" smooth="yes"/>
      <point x="329" y="46"/>
      <point x="106" y="269"/>
      <point x="106" y="516" type="curve" smooth="yes"/>
      <point x="106" y="734"/>
      <point x="258" y="896"/>
      <point x="572" y="896" type="curve" smooth="yes"/>
      <point x="766" y="896" type="line"/>
      <point x="725" y="862" type="line"/>
    </contour>
    <component base="nuktadeva" xOffset="905" yOffset="312"/>
    <contour>
      <point x="563" y="57" type="move" name="btm"/>
    </contour>
    <contour>
      <point x="725" y="1283" type="move" name="top"/>
    </contour>
  </outline>
</glyph>
<glyph name="shavaprehalfdeva" format="1">
  <advance width="980"/>
  <outline>
    <contour>
      <point x="172" y="430" type="line"/>
      <point x="78" y="583" type="line"/>
      <point x="362" y="742" type="line"/>
      <point x="576" y="861"/>
      <point x="641" y="936"/>
      <point x="641" y="1024" type="curve" smooth="yes"/>
      <point x="641" y="1098"/>
      <point x="584" y="1151"/>
      <point x="507" y="1151" type="curve" smooth="yes"/>
      <point x="416" y="1151"/>
      <point x="367" y="1097"/>
      <point x="367" y="1023" type="curve" smooth="yes"/>
      <point x="367" y="885"/>
      <point x="570" y="763"/>
      <point x="1173" y="723" type="curve"/>
      <point x="1193" y="565" type="line"/>
      <point x="423" y="598"/>
      <point x="182" y="819"/>
      <point x="182" y="1050" type="curve" smooth="yes"/>
      <point x="182" y="1189"/>
      <point x="290" y="1314"/>
      <point x="490" y="1314" type="curve" smooth="yes"/>
      <point x="698" y="1314"/>
      <point x="816" y="1182"/>
      <point x="816" y="1019" type="curve" smooth="yes"/>
      <point x="816" y="858"/>
      <point x="701" y="728"/>
      <point x="458" y="592" type="curve" smooth="yes"/>
    </contour>
    <contour>
      <point x="1051" y="209" type="curve" smooth="yes"/>
      <point x="1051" y="277"/>
      <point x="974" y="345"/>
      <point x="834" y="345" type="curve" smooth="yes"/>
      <point x="710" y="345"/>
      <point x="647" y="280"/>
      <point x="647" y="200" type="curve" smooth="yes"/>
      <point x="647" y="111"/>
      <point x="726" y="54"/>
      <point x="818" y="54" type="curve" smooth="yes"/>
      <point x="970" y="54"/>
      <point x="1051" y="129"/>
    </contour>
    <contour>
      <point x="1204" y="203" type="curve" smooth="yes"/>
      <point x="1204" y="51"/>
      <point x="1057" y="-90"/>
      <point x="840" y="-90" type="curve" smooth="yes"/>
      <point x="617" y="-90"/>
      <point x="475" y="52"/>
      <point x="475" y="228" type="curve" smooth="yes"/>
      <point x="475" y="367"/>
      <point x="580" y="487"/>
      <point x="798" y="487" type="curve" smooth="yes"/>
      <point x="1066" y="487"/>
      <point x="1204" y="347"/>
    </contour>
  </outline>
</glyph>
<glyph name="takhadeva" format="1">
  <advance width="2382"/>
  <outline>
    <contour>
      <point x="805" y="827" type="line"/>
      <point x="791" y="651" type="line"/>
      <point x="591" y="651" type="line"/>
      <point x="387" y="651"/>
      <point x="312" y="553"/>
      <point x="312" y="440" type="curve" smooth="yes"/>
      <point x="312" y="337"/>
      <point x="354" y="230"/>
      <point x="495" y="19" type="curve"/>
      <point x="325" y="-38" type="line"/>
      <point x="172" y="185"/>
      <point x="115" y="344"/>
      <point x="116" y="487" type="curve" smooth="yes"/>
      <point x="117" y="674"/>
      <point x="245" y="827"/>
      <point x="535" y="827" type="curve" smooth="yes"/>
    </contour>
    <contour>
      <point x="-30" y="1136" type="line"/>
      <point x="-30" y="1283" type="line"/>
      <point x="691" y="1283" type="line"/>
      <point x="691" y="1136" type="line"/>
    </contour>
    <component base="khadeva" xOffset="663"/>
  </outline>
</glyph>
<glyph name="tanadeva" format="1">
  <advance width="1909"/>
  <outline>
    <contour>
      <point x="958" y="807" type="line"/>
      <point x="953" y="634" type="line"/>
      <point x="575" y="634" type="line"/>
      <point x="386" y="634"/>
      <point x="316" y="558"/>
      <point x="316" y="443" type="curve" smooth="yes"/>
      <point x="316" y="359"/>
      <point x="353" y="252"/>
      <point x="495" y="40" type="curve"/>
      <point x="324" y="-17" type="line"/>
      <point x="170" y="206"/>
      <point x="118" y="372"/>
      <point x="118" y="489" type="curve" smooth="yes"/>
      <point x="118" y="675"/>
      <point x="238" y="807"/>
      <point x="528" y="807" type="curve" smooth="yes"/>
    </contour>
    <contour>
      <point x="-30" y="1136" type="line"/>
      <point x="-30" y="1283" type="line"/>
      <point x="739" y="1283" type="line"/>
      <point x="739" y="1136" type="line"/>
    </contour>
    <component base="nadeva" xOffset="673"/>
  </outline>
</glyph>
<glyph name="tathadeva" format="1">
  <advance width="1984"/>
  <outline>
    <contour>
      <point x="927" y="719" type="curve"/>
      <point x="837" y="550" type="line"/>
      <point x="740" y="631"/>
      <point x="654" y="665"/>
      <point x="540" y="665" type="curve" smooth="yes"/>
      <point x="382" y="665"/>
      <point x="315" y="575"/>
      <point x="315" y="462" type="curve" smooth="yes"/>
      <point x="315" y="354"/>
      <point x="373" y="228"/>
      <point x="498" y="40" type="curve"/>
      <point x="327" y="-17" type="line"/>
      <point x="189" y="186"/>
      <point x="118" y="362"/>
      <point x="118" y="509" type="curve" smooth="yes"/>
      <point x="119" y="697"/>
      <point x="243" y="847"/>
      <point x="493" y="847" type="curve" smooth="yes"/>
      <point x="657" y="847"/>
      <point x="806" y="792"/>
    </contour>
    <contour>
      <point x="-30" y="1136" type="line"/>
      <point x="-30" y="1283" type="line"/>
      <point x="693" y="1283" type="line"/>
      <point x="693" y="1136" type="line"/>
    </contour>
    <component base="thadeva" xOffset="609"/>
  </outline>
</glyph>
<glyph name="tayadeva" format="1">
  <advance width="1959"/>
  <outline>
    <contour>
      <point x="-30" y="1136" type="line"/>
      <point x="-30" y="1283" type="line"/>
      <point x="698" y="1283" type="line"/>
      <point x="698" y="1136" type="line"/>
    </contour>
    <contour>
      <point x="930" y="719" type="curve"/>
      <point x="840" y="550" type="line"/>
      <point x="743" y="631"/>
      <point x="651" y="665"/>
      <point x="540" y="665" type="curve" smooth="yes"/>
      <point x="382" y="665"/>
      <point x="315" y="575"/>
      <point x="315" y="462" type="curve" smooth="yes"/>
      <point x="315" y="354"/>
      <point x="373" y="228"/>
      <point x="498" y="40" type="curve"/>
      <point x="327" y="-17" type="line"/>
      <point x="189" y="186"/>
      <point x="118" y="362"/>
      <point x="118" y="509" type="curve" smooth="yes"/>
      <point x="119" y="697"/>
      <point x="243" y="847"/>
      <point x="493" y="847" type="curve" smooth="yes"/>
      <point x="657" y="847"/>
      <point x="809" y="792"/>
    </contour>
    <component base="yadeva" xOffset="651"/>
  </outline>
</glyph>
<glyph name="ttattadeva" format="1">
  <advance width="1162"/>
  <outline>
    <contour>
      <point x="649" y="293" type="line"/>
      <point x="856" y="293" type="line"/>
      <point x="856" y="-48" type="line"/>
      <point x="615" y="-48" type="line"/>
      <point x="408" y="-48"/>
      <point x="328" y="-134"/>
      <point x="328" y="-234" type="curve" smooth="yes"/>
      <point x="328" y="-335"/>
      <point x="428" y="-412"/>
      <point x="602" y="-412" type="curve" smooth="yes"/>
      <point x="710" y="-412"/>
      <point x="819" y="-393"/>
      <point x="946" y="-343" type="curve"/>
      <point x="989" y="-509" type="line"/>
      <point x="865" y="-558"/>
      <point x="761" y="-578"/>
      <point x="622" y="-578" type="curve" smooth="yes"/>
      <point x="302" y="-578"/>
      <point x="124" y="-415"/>
      <point x="124" y="-215" type="curve" smooth="yes"/>
      <point x="124" y="-36"/>
      <point x="270" y="109"/>
      <point x="547" y="109" type="curve" smooth="yes"/>
      <point x="688" y="109" type="line"/>
      <point x="649" y="72" type="line"/>
    </contour>
    <contour>
      <point x="726" y="1174" type="line"/>
      <point x="932" y="1174" type="line"/>
      <point x="932" y="808" type="line"/>
      <point x="618" y="808" type="line"/>
      <point x="387" y="808"/>
      <point x="310" y="705"/>
      <point x="310" y="592" type="curve" smooth="yes"/>
      <point x="310" y="484"/>
      <point x="419" y="392"/>
      <point x="624" y="392" type="curve" smooth="yes"/>
      <point x="738" y="392"/>
      <point x="847" y="413"/>
      <point x="974" y="462" type="curve"/>
      <point x="1017" y="295" type="line"/>
      <point x="892" y="246"/>
      <point x="788" y="224"/>
      <point x="643" y="224" type="curve" smooth="yes"/>
      <point x="294" y="224"/>
      <point x="102" y="394"/>
      <point x="102" y="619" type="curve" smooth="yes"/>
      <point x="102" y="817"/>
      <point x="257" y="967"/>
      <point x="553" y="967" type="curve" smooth="yes"/>
      <point x="765" y="967" type="line"/>
      <point x="726" y="931" type="line"/>
    </contour>
    <contour>
      <point x="1192" y="1136" type="line"/>
      <point x="-30" y="1136" type="line"/>
      <point x="-30" y="1283" type="line"/>
      <point x="1192" y="1283" type="line"/>
    </contour>
    <contour>
      <point x="515" y="-576" type="move" name="btm"/>
    </contour>
    <contour>
      <point x="692" y="1283" type="move" name="top"/>
    </contour>
  </outline>
</glyph>
